<svg xmlns="http://www.w3.org/2000/svg" xmlns:xlink="http://www.w3.org/1999/xlink" width="90" height="111" viewBox="0 0 90 111">
  <defs>
    <linearGradient id="linear-gradient" x1="0.767" y1="-0.1" x2="-0.178" y2="1.521" gradientUnits="objectBoundingBox">
      <stop offset="0" stop-color="#7062f2"/>
      <stop offset="1" stop-color="#ad52f3"/>
    </linearGradient>
  </defs>
  <path id="_1" data-name="1" d="M61.4,110.9l30.772-7.22s-11.1-81.46-11.194-82a.973.973,0,0,0-.9-.888c-.414,0-8.226-.629-8.226-.629s-5.437-5.892-6.136-6.526A1.618,1.618,0,0,0,65.2,13.3L61.3,110.9h.1ZM45.933,52.286a17.116,17.116,0,0,0-7.565-1.961c-6.171,0-6.414,4.19-6.414,5.277,0,5.7,13.817,7.932,13.817,21.409,0,10.614-6.141,17.39-14.525,17.39a19.453,19.453,0,0,1-15.1-6.776l2.755-9.648s5.309,4.93,9.723,4.93A4.209,4.209,0,0,0,32.786,78.6c0-7.488-11.318-7.835-11.318-20.16-.145-10.346,6.7-20.424,20.584-20.424,5.36,0,8,1.67,8,1.67l-4.03,12.557-.085.046ZM43.63,3.839a2.717,2.717,0,0,1,1.727.624c-4.2,2.151-8.8,7.58-10.7,18.463-2.8.985-5.514,1.873-8.055,2.673C28.82,17.344,34.168,3.885,43.63,3.885ZM48.9,17.478V18.1c-3.215,1.073-6.751,2.238-10.209,3.4,1.987-8.219,5.684-12.233,8.891-13.741A29.32,29.32,0,0,1,48.9,17.478ZM51.2,7.146c2.959.342,4.866,4.01,6.094,8.117-1.488.527-3.134,1.068-4.938,1.693V15.79A28.354,28.354,0,0,0,51.2,7.136Zm12.759,5.962c-.085,0-.256.1-.333.1s-1.232.347-3.045.971c-1.8-5.7-5.015-10.961-10.7-10.961h-.49C47.746.967,45.758,0,44.036,0,30.79,0,24.462,17.931,22.479,27.038c-5.092,1.688-8.8,2.941-9.211,3.117-2.878.985-2.959,1.073-3.292,4.024-.32,2.137-7.8,65.041-7.8,65.041L60,111l3.953-97.893Z" transform="translate(-2.172)" fill="url(#linear-gradient)"/>
</svg>
