<svg xmlns="http://www.w3.org/2000/svg" xmlns:xlink="http://www.w3.org/1999/xlink" width="103.109" height="111" viewBox="0 0 103.109 111">
  <defs>
    <linearGradient id="linear-gradient" x1="0.767" y1="-0.1" x2="-0.178" y2="1.521" gradientUnits="objectBoundingBox">
      <stop offset="0" stop-color="#7062f2"/>
      <stop offset="1" stop-color="#ad52f3"/>
    </linearGradient>
  </defs>
  <path id="_3" data-name="3" d="M48.825,31.284l9.477,3.1a1.817,1.817,0,0,1,1.156,1.756,1.729,1.729,0,0,1-1.592,1.821H51.65a4.362,4.362,0,0,1-1.952-.477,2.128,2.128,0,0,0-2.673.434l-3.317,3.794a2.842,2.842,0,0,0,.284,3.989,12.8,12.8,0,0,0,6.027,2.493v3.837A3.282,3.282,0,0,0,53.052,55.5h3.033a3.282,3.282,0,0,0,3.033-3.469V48.216c5.743-.78,10.1-6.721,9.344-13.658a12.257,12.257,0,0,0-8.131-10.341l-9.477-3.1A1.817,1.817,0,0,1,49.7,19.36a1.729,1.729,0,0,1,1.592-1.821h6.217a4.362,4.362,0,0,1,1.952.477,2.128,2.128,0,0,0,2.673-.434l3.317-3.794A2.842,2.842,0,0,0,65.164,9.8a12.8,12.8,0,0,0-6.027-2.493V3.469A3.282,3.282,0,0,0,56.1,0H53.071a3.282,3.282,0,0,0-3.033,3.469V7.284c-5.743.78-10.1,6.721-9.344,13.658A12.257,12.257,0,0,0,48.825,31.284ZM101.2,71.131a5.175,5.175,0,0,0-7.638,0L77.029,87.152a10.244,10.244,0,0,1-7.165,3.035H48.693c-1.573,0-2.862-1.561-2.862-3.469s1.289-3.469,2.862-3.469H62.7a6.315,6.315,0,0,0,5.952-5.767c.588-4.336-2.18-8.108-5.648-8.108H34.364a18.861,18.861,0,0,0-13.249,5.7L12.794,83.25H2.862C1.289,83.25,0,84.811,0,86.719v20.813C0,109.439,1.289,111,2.862,111H66.718a10.312,10.312,0,0,0,7.165-3.035l27.066-26.232a7.923,7.923,0,0,0,.246-10.6Z" fill="url(#linear-gradient)"/>
</svg>
