<svg xmlns="http://www.w3.org/2000/svg" xmlns:xlink="http://www.w3.org/1999/xlink" width="90" height="111" viewBox="0 0 90 111">
  <defs>
    <linearGradient id="linear-gradient" x1="0.767" y1="-0.1" x2="-0.178" y2="1.521" gradientUnits="objectBoundingBox">
      <stop offset="0" stop-color="#7062f2"/>
      <stop offset="1" stop-color="#ad52f3"/>
    </linearGradient>
  </defs>
  <path id="_4" data-name="4" d="M19.817,11.913V97.832c0,2.055-1.363,3.736-3.029,3.736h0c-1.666,0-3.029-1.681-3.029-3.736V20.452H10.3c-3.829,0-6.923,3.816-6.923,8.538v76.846c0,4.723,3.094,8.538,6.923,8.538H86.69c3.678,0,6.685-3.682,6.685-8.245V11.913c0-4.723-3.094-8.538-6.923-8.538l-60.144.534C22.478,3.909,19.817,7.191,19.817,11.913ZM34.1,20.452H52.269c1.666,0,3.029,1.681,3.029,3.736h0c0,2.055-1.363,3.736-3.029,3.736H34.1c-1.666,0-3.029-1.681-3.029-3.736h0C31.067,22.133,32.43,20.452,34.1,20.452Zm0,42.692H66.115c1.666,0,3.029,1.681,3.029,3.736h0c0,2.055-1.363,3.736-3.029,3.736H34.1c-1.666,0-3.029-1.681-3.029-3.736h0C31.067,64.825,32.43,63.144,34.1,63.144ZM76.5,91.962H34.1c-1.666,0-3.029-1.681-3.029-3.736h0c0-2.055,1.363-3.736,3.029-3.736H76.5c1.666,0,3.029,1.681,3.029,3.736h0C79.529,90.281,78.166,91.962,76.5,91.962Zm0-42.692H34.1c-1.666,0-3.029-1.681-3.029-3.736h0c0-2.055,1.363-3.736,3.029-3.736H76.5c1.666,0,3.029,1.681,3.029,3.736h0C79.529,47.588,78.166,49.269,76.5,49.269Z" transform="translate(-3.375 -3.375)" fill="url(#linear-gradient)"/>
</svg>
