<?xml version="1.0" encoding="UTF-8"?>
<svg xmlns="http://www.w3.org/2000/svg" xmlns:xlink="http://www.w3.org/1999/xlink" viewBox="0 0 144 144" width="144px" height="144px">
<g id="surface40938766">
<path style=" stroke:none;fill-rule:nonzero;fill:rgb(67.843139%,32.156864%,95.294118%);fill-opacity:1;" d="M 129 33 L 15 33 C 8.371094 33 3 38.371094 3 45 L 3 93 C 3 99.625 8.371094 105 15 105 L 72 105 L 96 117 L 90 105 L 129 105 C 135.625 105 141 99.625 141 93 L 141 45 C 141 38.371094 135.625 33 129 33 Z M 129 33 "/>
<path style=" stroke:none;fill-rule:nonzero;fill:rgb(100%,100%,100%);fill-opacity:1;" d="M 121.328125 57 C 121.453125 57 121.726562 57.015625 122.160156 57.113281 C 123.1875 57.34375 123.835938 57.707031 124.621094 59.171875 C 125.550781 60.847656 126 63.019531 126 65.816406 C 126 70.011719 125.050781 73.734375 123.082031 77.222656 C 120.964844 81 119.414062 81 118.671875 81 C 118.546875 81 118.273438 80.984375 117.839844 80.886719 C 116.8125 80.65625 116.164062 80.292969 115.414062 78.886719 C 114.472656 77.164062 114 74.890625 114 72.128906 C 114 67.933594 114.941406 64.238281 116.890625 60.832031 C 119.074219 57 120.652344 57 121.328125 57 M 121.328125 48 C 116.320312 48 112.25 50.792969 109.066406 56.378906 C 106.355469 61.125 105 66.375 105 72.128906 C 105 76.429688 105.832031 80.113281 107.503906 83.1875 C 109.382812 86.707031 112.148438 88.828125 115.855469 89.667969 C 116.84375 89.890625 117.78125 90 118.671875 90 C 123.730469 90 127.800781 87.207031 130.933594 81.621094 C 133.644531 76.816406 135 71.566406 135 65.816406 C 135 61.460938 134.164062 57.832031 132.496094 54.8125 C 130.617188 51.292969 127.851562 49.171875 124.144531 48.332031 C 123.15625 48.109375 122.21875 48 121.328125 48 Z M 85.328125 57 C 85.453125 57 85.726562 57.015625 86.132812 57.109375 C 87.132812 57.335938 87.847656 57.730469 88.621094 59.175781 C 89.550781 60.847656 90 63.019531 90 65.816406 C 90 70.011719 89.050781 73.734375 87.082031 77.222656 C 84.964844 81 83.414062 81 82.671875 81 C 82.546875 81 82.273438 80.984375 81.839844 80.886719 C 80.8125 80.65625 80.164062 80.292969 79.414062 78.886719 C 78.472656 77.164062 78 74.890625 78 72.128906 C 78 67.933594 78.941406 64.238281 80.890625 60.832031 C 83.074219 57 84.652344 57 85.328125 57 M 85.328125 48 C 80.320312 48 76.25 50.792969 73.066406 56.378906 C 70.355469 61.125 69 66.375 69 72.128906 C 69 76.429688 69.832031 80.113281 71.503906 83.1875 C 73.382812 86.707031 76.148438 88.828125 79.855469 89.667969 C 80.84375 89.890625 81.78125 90 82.671875 90 C 87.730469 90 91.800781 87.207031 94.933594 81.621094 C 97.644531 76.816406 99 71.566406 99 65.816406 C 99 61.460938 98.164062 57.832031 96.496094 54.8125 C 94.617188 51.292969 91.800781 49.171875 88.144531 48.332031 C 87.15625 48.109375 86.21875 48 85.328125 48 Z M 55.5 96 C 54.238281 96 53.003906 95.464844 52.132812 94.484375 C 45.542969 87.046875 41.496094 77.28125 39.109375 69.457031 C 35.679688 76.714844 31.046875 86 26.359375 93.8125 C 25.429688 95.359375 23.675781 96.1875 21.886719 95.957031 C 20.097656 95.707031 18.628906 94.417969 18.160156 92.679688 C 11.523438 68.296875 9.136719 50.828125 9.042969 50.097656 C 8.710938 47.636719 10.441406 45.371094 12.898438 45.039062 C 15.394531 44.714844 17.628906 46.433594 17.960938 48.898438 C 17.980469 49.042969 19.675781 61.429688 24.058594 79.492188 C 30.714844 66.871094 36.292969 53.890625 36.367188 53.722656 C 37.167969 51.863281 39.121094 50.757812 41.105469 51.039062 C 43.109375 51.308594 44.6875 52.882812 44.960938 54.886719 C 44.980469 55.042969 46.585938 66.363281 51.695312 77.242188 C 53.851562 55.742188 60.316406 44.722656 60.640625 44.179688 C 61.921875 42.046875 64.691406 41.355469 66.816406 42.632812 C 68.949219 43.910156 69.640625 46.675781 68.359375 48.808594 C 68.285156 48.9375 60 63.34375 60 91.5 C 60 93.367188 58.84375 95.046875 57.097656 95.707031 C 56.574219 95.902344 56.035156 96 55.5 96 Z M 55.5 96 "/>
</g>
</svg>
