<svg xmlns="http://www.w3.org/2000/svg" xmlns:xlink="http://www.w3.org/1999/xlink" width="100" height="100" viewBox="0 0 100 100">
  <defs>
    <linearGradient id="linear-gradient" x1="0.725" x2="-0.178" y2="1.521" gradientUnits="objectBoundingBox">
      <stop offset="0" stop-color="#7062f2"/>
      <stop offset="0.516" stop-color="#ac52f3"/>
      <stop offset="1" stop-color="#ad52f3"/>
    </linearGradient>
  </defs>
  <g id="_2" data-name="2" transform="translate(-2.25 -4.5)">
    <path id="Path_1" data-name="Path 1" d="M98.679,4.5H37.964C36,4.5,34.393,6.505,34.393,8.8V17H11.625C6.469,17,2.25,21.922,2.25,27.937V81.974c0,12.4,8.705,22.526,19.2,22.526H83.879c10.067,0,18.371-9.609,18.371-21.354V8.667C102.25,6.375,100.643,4.5,98.679,4.5ZM34.393,25.333v50H25.018v-45a14.626,14.626,0,0,0-.737-5ZM30.6,91.844a12.28,12.28,0,0,1-9.04,4.323A11.329,11.329,0,0,1,12.964,92,15.378,15.378,0,0,1,9.393,81.974V30.333c0-2.76,1.875-5,4.241-5s4.241,2.24,4.241,5V79.5c0,2.292,1.607,4.167,3.571,4.167H34.281A14.562,14.562,0,0,1,30.6,91.844Zm64.509-8.7a14.1,14.1,0,0,1-3.326,9.193,10.413,10.413,0,0,1-7.9,3.828H36.915a23.96,23.96,0,0,0,4.621-14.193V13.094H95.107Z" transform="translate(0 0)" fill="url(#linear-gradient)"/>
    <path id="Path_2" data-name="Path 2" d="M17.438,9.563h11.25V13.5H17.438Z" transform="translate(51.375 16.024)" fill="url(#linear-gradient)"/>
    <path id="Path_3" data-name="Path 3" d="M17.438,15.75h11.25V18H17.438Z" transform="translate(51.375 33.182)" fill="url(#linear-gradient)"/>
    <path id="Path_4" data-name="Path 4" d="M17.438,20.25h11.25V22.5H17.438Z" transform="translate(51.375 46.455)" fill="url(#linear-gradient)"/>
    <path id="Path_5" data-name="Path 5" d="M28.688,24.75H17.438s0,2.25-.562,2.25H27.33C28.688,27,28.688,25.523,28.688,24.75Z" transform="translate(50.886 59.727)" fill="url(#linear-gradient)"/>
  </g>
</svg>
