<svg xmlns="http://www.w3.org/2000/svg" xmlns:xlink="http://www.w3.org/1999/xlink" width="139.17" height="139.256" viewBox="0 0 139.17 139.256">
  <defs>
    <linearGradient id="linear-gradient" x1="0.725" x2="-0.178" y2="1.521" gradientUnits="objectBoundingBox">
      <stop offset="0" stop-color="#7062f2"/>
      <stop offset="0.516" stop-color="#ac52f3"/>
      <stop offset="1" stop-color="#ad52f3"/>
    </linearGradient>
  </defs>
  <g id="_4" data-name="4" transform="translate(-203.241 26.441) rotate(-25)">
    <g id="Icon_ionic-ios-megaphone" data-name="Icon ionic-ios-megaphone" transform="translate(166.632 102.625)">
      <path id="Path_6" data-name="Path 6" d="M6.335,13.148A6.458,6.458,0,0,1,9.394,7.6a.227.227,0,0,0-.12-.422h0a5.43,5.43,0,0,0-5.21,4.908,1,1,0,0,0-.7,1.048.958.958,0,0,0,.759,1.041,6.2,6.2,0,0,0,4.3,4.535h0a.307.307,0,0,0,.267-.527A7.006,7.006,0,0,1,6.335,13.148Z" transform="translate(2 20)" fill="url(#linear-gradient)"/>
      <path id="Path_7" data-name="Path 7" d="M99.562,16.548c-.274-.649-.575-1.25-.876-1.851a24.787,24.787,0,0,0-5.942-7.74,14.491,14.491,0,0,0-9.529-3.582A13.727,13.727,0,0,0,76.151,5.25C64.35,11.476,45.4,16.308,33.984,16.308s-10.788.048-10.788.048c-8.652,3.365-15,11.274-15,20.433,0,8.221,4.874,15.433,12.157,19.231,3.313,2.428,6.462,2.115,5.777,5.337S19.965,84.793,19.281,89s-.794,6.611,1.1,8.654C22.293,99.7,33.93,103.375,39,103.375s3.779-2.091,3.779-10.529-2.546-31.659,4.518-31.659c13.225,0,20.125,4.159,30.475,7.62a16.4,16.4,0,0,0,5.5,1.13c1.643,0,5.12-.457,9.5-4.375a25.019,25.019,0,0,0,5.942-7.74c.3-.625.6-1.25.9-1.923a50.009,50.009,0,0,0,3.751-19.687A50.057,50.057,0,0,0,99.562,16.548Zm-7.283,37.74c-1.752,3.774-4.819,6.779-7.366,6.779s-4.874-3-6.626-6.779c-2.054-4.4-3.368-10.817-3.368-17.957,0-7.163,1.314-13.606,3.368-18,1.752-3.75,4.08-6.01,6.6-6.01,2.546,0,5.558,2.284,7.338,6.01a42.971,42.971,0,0,1,.055,35.962Z" transform="translate(0)" fill="url(#linear-gradient)"/>
    </g>
    <line id="Line_1" data-name="Line 1" y1="15" x2="44" transform="translate(256.5 111.5)" fill="none" stroke="#7062f2" stroke-width="1"/>
    <line id="Line_2" data-name="Line 2" x2="56" y2="3" transform="translate(256.5 136.5)" fill="none" stroke="#7062f2" stroke-width="1"/>
    <line id="Line_3" data-name="Line 3" x2="35" y2="16" transform="translate(259.5 149.5)" fill="none" stroke="#7062f2" stroke-width="1"/>
  </g>
</svg>
