<svg xmlns="http://www.w3.org/2000/svg" xmlns:xlink="http://www.w3.org/1999/xlink" width="100" height="100" viewBox="0 0 100 100">
  <defs>
    <linearGradient id="linear-gradient" x1="0.725" x2="-0.178" y2="1.521" gradientUnits="objectBoundingBox">
      <stop offset="0" stop-color="#7062f2"/>
      <stop offset="0.516" stop-color="#ac52f3"/>
      <stop offset="1" stop-color="#ad52f3"/>
    </linearGradient>
  </defs>
  <path id="_8" data-name="8" d="M36.047,51.153a3.127,3.127,0,0,1-4.7,3.353L23.39,49.534l-9.935,15.9A6.261,6.261,0,0,0,18.752,75H28.906a2.344,2.344,0,0,1,2.344,2.344v7.812A2.344,2.344,0,0,1,28.906,87.5H18.772a18.762,18.762,0,0,1-15.9-28.687l9.926-15.9-7.954-4.97A3.127,3.127,0,0,1,5.8,32.251L27.328,27.28a3.125,3.125,0,0,1,3.748,2.342l4.971,21.531ZM55.3,15.427l8.064,12.905L55.4,33.3A3.127,3.127,0,0,0,56.357,39L77.888,43.97a3.125,3.125,0,0,0,3.748-2.342L86.607,20.1a3.127,3.127,0,0,0-4.7-3.353l-7.947,4.966L65.9,8.8a18.76,18.76,0,0,0-31.8,0l-3.508,5.618a2.344,2.344,0,0,0,.746,3.229l6.625,4.14a2.344,2.344,0,0,0,3.23-.746L44.7,15.432A6.257,6.257,0,0,1,55.3,15.427ZM97.127,58.812l-5.374-8.606a2.344,2.344,0,0,0-3.23-.746l-6.613,4.133a2.344,2.344,0,0,0-.746,3.23l5.384,8.616A6.261,6.261,0,0,1,81.247,75H62.5V65.629a3.127,3.127,0,0,0-5.335-2.21L41.54,79.041a3.125,3.125,0,0,0,0,4.419L57.165,99.083a3.127,3.127,0,0,0,5.335-2.21V87.5H81.227A18.762,18.762,0,0,0,97.127,58.812Z" transform="translate(0 0)" fill="url(#linear-gradient)"/>
</svg>
