<svg xmlns="http://www.w3.org/2000/svg" xmlns:xlink="http://www.w3.org/1999/xlink" width="699.684" height="626.579" viewBox="0 0 699.684 626.579">
  <defs>
    <linearGradient id="linear-gradient" x1="0.877" y1="0.331" x2="0.5" y2="1" gradientUnits="objectBoundingBox">
      <stop offset="0" stop-color="#7062f2"/>
      <stop offset="1" stop-color="#ad52f3"/>
    </linearGradient>
  </defs>
  <g id="Group_2" data-name="Group 2" transform="translate(-525.579 -215)">
    <path id="Icon_awesome-wordpress-simple" data-name="Icon awesome-wordpress-simple" d="M350.4.563C157.568.563.563,141.037.563,313.852c0,172.688,157.006,313.29,349.842,313.29s349.842-140.6,349.842-313.29C700.247,141.037,543.241.563,350.4.563ZM35.829,313.852A255.2,255.2,0,0,1,63.054,199.274L213.148,567.389C108.2,521.659,35.829,425.272,35.829,313.852ZM350.4,595.56a347.414,347.414,0,0,1-88.871-11.5l94.373-245.579,96.63,237.241a36.792,36.792,0,0,0,2.257,3.916A348.225,348.225,0,0,1,350.4,595.56Zm43.307-413.719c18.9-.884,35.972-2.653,35.972-2.653,16.928-1.769,14.953-24.128-1.975-23.244,0,0-50.925,3.537-83.793,3.537-30.893,0-82.805-3.537-82.805-3.537-16.928-.884-18.9,22.36-1.975,23.244,0,0,16.081,1.769,33.009,2.653L341.094,302.1l-68.84,184.816L157.709,181.841c18.9-.884,35.972-2.653,35.972-2.653,16.928-1.769,14.953-24.128-1.975-23.244,0,0-50.925,3.537-83.793,3.537-5.925,0-12.837-.126-20.313-.379C143.885,82.675,240.515,32.144,350.4,32.144c81.818,0,156.441,28.044,212.444,73.9-1.411-.126-2.68-.253-4.091-.253-30.893,0-52.758,24.128-52.758,50.025,0,23.244,14.953,42.825,30.893,66.069,11.99,18.7,25.956,42.825,25.956,77.691,0,24.128-10.3,52.046-23.981,91.081l-31.317,93.861L393.712,181.841ZM508.539,557.283,604.6,308.546c17.915-40.172,23.981-72.259,23.981-100.935a186.029,186.029,0,0,0-2.116-28.929c24.545,40.172,38.511,86.155,38.511,135.169C664.98,417.819,602.065,508.521,508.539,557.283Z" transform="translate(525.016 214.438)" fill="url(#linear-gradient)"/>
  </g>
</svg>
