<svg xmlns="http://www.w3.org/2000/svg" xmlns:xlink="http://www.w3.org/1999/xlink" width="713.211" height="682.316" viewBox="0 0 713.211 682.316">
  <defs>
    <clipPath id="clip-path">
      <rect id="Rectangle_35" data-name="Rectangle 35" width="713.211" height="682.316" fill="none"/>
    </clipPath>
    <clipPath id="clip-path-3">
      <rect id="Rectangle_1" data-name="Rectangle 1" width="299.986" height="169.047" fill="none"/>
    </clipPath>
    <clipPath id="clip-path-4">
      <path id="Path_2" data-name="Path 2" d="M162.242,297.974,42.469,365.248c-6.769,3.8-12.237,13.018-12.217,20.585l.388,133.9c.011,3.76,1.377,6.406,3.578,7.65l139.6,78.926c-2.2-1.244-3.563-3.887-3.577-7.65l-.388-133.9c-.025-7.566,5.448-16.783,12.218-20.586L301.845,376.9c3.407-1.915,6.495-2.091,8.724-.831q-69.8-39.466-139.606-78.928a6.462,6.462,0,0,0-3.219-.8,11.389,11.389,0,0,0-5.5,1.637" transform="translate(-30.252 -296.337)" fill="none"/>
    </clipPath>
    <linearGradient id="linear-gradient" x1="-0.136" y1="1.025" x2="-0.132" y2="1.025" gradientUnits="objectBoundingBox">
      <stop offset="0" stop-color="#4e48c1"/>
      <stop offset="0.353" stop-color="#7062f2"/>
      <stop offset="1" stop-color="#7062f2"/>
    </linearGradient>
    <clipPath id="clip-path-5">
      <path id="Path_3" data-name="Path 3" d="M272.614,362.115,152.843,429.388c-6.771,3.8-12.244,13.02-12.218,20.586l.388,133.9c.023,7.57,5.53,10.622,12.3,6.818l119.773-67.276c6.769-3.8,12.239-13.016,12.214-20.588l-.39-133.9c-.016-5.359-2.779-8.454-6.8-8.454a11.4,11.4,0,0,0-5.5,1.637" transform="translate(-140.625 -360.478)" fill="none"/>
    </clipPath>
    <linearGradient id="linear-gradient-2" x1="-1.229" y1="1.02" x2="-1.22" y2="1.02" gradientUnits="objectBoundingBox">
      <stop offset="0" stop-color="#4e48c1"/>
      <stop offset="0.565" stop-color="#7062f2"/>
      <stop offset="1" stop-color="#7062f2"/>
    </linearGradient>
    <clipPath id="clip-path-7">
      <path id="Path_6" data-name="Path 6" d="M162.242,166.643,42.469,233.917c-6.769,3.8-12.237,13.019-12.217,20.586l.388,133.9c.011,3.759,1.377,6.4,3.578,7.648q69.8,39.468,139.6,78.93c-2.2-1.248-3.563-3.89-3.577-7.651l-.388-133.9c-.025-7.568,5.448-16.787,12.218-20.588l119.771-67.272c3.407-1.915,6.495-2.093,8.724-.833q-69.8-39.466-139.606-78.928a6.462,6.462,0,0,0-3.219-.8,11.4,11.4,0,0,0-5.5,1.637" transform="translate(-30.252 -165.006)" fill="none"/>
    </clipPath>
    <linearGradient id="linear-gradient-3" x1="-0.136" y1="1.546" x2="-0.132" y2="1.546" gradientUnits="objectBoundingBox">
      <stop offset="0" stop-color="#4e48c1"/>
      <stop offset="0.312" stop-color="#7062f2"/>
      <stop offset="1" stop-color="#7062f2"/>
    </linearGradient>
    <clipPath id="clip-path-8">
      <path id="Path_7" data-name="Path 7" d="M272.614,230.786,152.843,298.058c-6.771,3.8-12.244,13.02-12.218,20.588l.388,133.9c.023,7.568,5.53,10.619,12.3,6.818l119.773-67.275c6.769-3.8,12.239-13.02,12.214-20.588l-.39-133.9c-.016-5.359-2.779-8.454-6.795-8.454a11.4,11.4,0,0,0-5.5,1.638" transform="translate(-140.625 -229.148)" fill="none"/>
    </clipPath>
    <linearGradient id="linear-gradient-4" x1="-1.229" y1="1.711" x2="-1.22" y2="1.711" xlink:href="#linear-gradient-3"/>
    <clipPath id="clip-path-10">
      <path id="Path_10" data-name="Path 10" d="M137.41,0a11.461,11.461,0,0,0-5.425,1.639L12.218,68.911C5.468,72.7.022,81.852,0,89.4v.1L.392,223.4c.013,3.765,1.379,6.411,3.567,7.654q69.8,39.464,139.612,78.925c-2.2-1.242-3.567-3.887-3.579-7.653l-.392-133.9c-.025-7.569,5.451-16.785,12.218-20.586L271.6,80.564c3.4-1.907,6.489-2.091,8.715-.836L140.713.8a6.463,6.463,0,0,0-3.141-.8Z" transform="translate(0 -0.001)" fill="none"/>
    </clipPath>
    <linearGradient id="linear-gradient-5" y1="2.201" x2="0.005" y2="2.201" gradientUnits="objectBoundingBox">
      <stop offset="0" stop-color="#4e48c1"/>
      <stop offset="1" stop-color="#7062f2"/>
    </linearGradient>
    <clipPath id="clip-path-11">
      <path id="Path_11" data-name="Path 11" d="M242.364,65.779,122.589,133.053c-6.769,3.8-12.24,13.021-12.217,20.588l.39,133.9c.021,7.57,5.529,10.619,12.3,6.817l119.771-67.275c6.771-3.8,12.239-13.018,12.217-20.587l-.391-133.9c-.015-5.359-2.779-8.454-6.795-8.452a11.391,11.391,0,0,0-5.5,1.635" transform="translate(-110.372 -64.144)" fill="none"/>
    </clipPath>
    <linearGradient id="linear-gradient-6" x1="-0.964" y1="2.578" x2="-0.956" y2="2.578" gradientUnits="objectBoundingBox">
      <stop offset="0" stop-color="#7062f2"/>
      <stop offset="0.992" stop-color="#4e48c1"/>
      <stop offset="1" stop-color="#4e48c1"/>
    </linearGradient>
    <clipPath id="clip-path-14">
      <path id="Path_30" data-name="Path 30" d="M303.121,133.868l11.635,6.578a25.95,25.95,0,0,0,10.083-9.748l-11.631-6.577a25.975,25.975,0,0,1-10.087,9.747" transform="translate(-303.121 -124.121)" fill="none"/>
    </clipPath>
    <clipPath id="clip-path-15">
      <path id="Path_32" data-name="Path 32" d="M334.249,96.41a13.847,13.847,0,0,1,1.579.764L324.2,90.6a13.719,13.719,0,0,0-1.582-.767Z" transform="translate(-322.613 -89.832)" fill="none"/>
    </clipPath>
    <clipPath id="clip-path-17">
      <path id="Path_35" data-name="Path 35" d="M311.1,106.933q3.474,2.226,3.5,8.762a24.556,24.556,0,0,1-3.437,12.421l11.631,6.577a24.51,24.51,0,0,0,3.437-12.421q-.017-6.538-3.5-8.762c-.076-.049-.157-.1-.239-.144l-11.569-6.54c.058.034.118.07.176.107m-.176-.107-.063-.036.063.036" transform="translate(-310.857 -106.79)" fill="none"/>
    </clipPath>
    <clipPath id="clip-path-19">
      <path id="Path_39" data-name="Path 39" d="M303.014,95.027l11.633,6.576q15.6-8.764,24.793-4.979L327.8,90.046a15.908,15.908,0,0,0-6.121-1.141q-7.767,0-18.669,6.122" transform="translate(-303.014 -88.905)" fill="none"/>
    </clipPath>
    <clipPath id="clip-path-21">
      <path id="Path_45" data-name="Path 45" d="M302.139,258.573l11.634,6.577a25.942,25.942,0,0,0,10.085-9.747l-11.631-6.577a25.975,25.975,0,0,1-10.087,9.747" transform="translate(-302.139 -248.826)" fill="none"/>
    </clipPath>
    <clipPath id="clip-path-22">
      <path id="Path_47" data-name="Path 47" d="M333.266,221.114a14.078,14.078,0,0,1,1.58.765L323.213,215.3a14.024,14.024,0,0,0-1.582-.767Z" transform="translate(-321.631 -214.537)" fill="none"/>
    </clipPath>
    <clipPath id="clip-path-24">
      <path id="Path_50" data-name="Path 50" d="M310.114,231.638q3.474,2.226,3.5,8.762a24.543,24.543,0,0,1-3.435,12.421l11.631,6.577a24.516,24.516,0,0,0,3.437-12.421q-.017-6.538-3.5-8.761c-.078-.049-.158-.1-.24-.145q-5.787-3.269-11.571-6.54c.059.034.118.07.177.107m-.177-.107c-.02-.012-.04-.025-.062-.036l.062.036" transform="translate(-309.875 -231.495)" fill="none"/>
    </clipPath>
    <clipPath id="clip-path-26">
      <path id="Path_54" data-name="Path 54" d="M302.032,219.732l11.633,6.577q15.6-8.764,24.792-4.981l-11.635-6.577a15.908,15.908,0,0,0-6.121-1.141q-7.767,0-18.669,6.122" transform="translate(-302.032 -213.61)" fill="none"/>
    </clipPath>
    <clipPath id="clip-path-28">
      <path id="Path_59" data-name="Path 59" d="M470.077,228.856a3.374,3.374,0,0,0,.813.33l-11.634-6.578a3.294,3.294,0,0,1-.812-.329Z" transform="translate(-458.444 -222.279)" fill="none"/>
    </clipPath>
    <clipPath id="clip-path-30">
      <path id="Path_62" data-name="Path 62" d="M440.154,230.395q.681,4.291,2.616,5.391l11.635,6.578q-1.935-1.1-2.617-5.393a61.329,61.329,0,0,1-.787-9.41l-11.633-6.577a61.656,61.656,0,0,0,.785,9.411" transform="translate(-439.369 -220.984)" fill="none"/>
    </clipPath>
    <clipPath id="clip-path-32">
      <path id="Path_66" data-name="Path 66" d="M440.055,217.829l11.633,6.577c-.014-4.677-1.131-7.624-3.34-8.862l-11.633-6.578c2.208,1.238,3.327,4.185,3.34,8.863" transform="translate(-436.715 -208.966)" fill="none"/>
    </clipPath>
    <clipPath id="clip-path-33">
      <path id="Path_68" data-name="Path 68" d="M443.4,194.815l11.633,6.577q6.215-1.517,9.744.479l-11.634-6.577a9.75,9.75,0,0,0-4.875-1.135,20.713,20.713,0,0,0-4.868.656" transform="translate(-443.4 -194.159)" fill="none"/>
    </clipPath>
    <clipPath id="clip-path-35">
      <path id="Path_71" data-name="Path 71" d="M428.516,198l11.633,6.578a26.363,26.363,0,0,0,9.394-8.414l-11.636-6.578a26.3,26.3,0,0,1-9.39,8.414" transform="translate(-428.516 -189.59)" fill="none"/>
    </clipPath>
    <clipPath id="clip-path-37">
      <path id="Path_74" data-name="Path 74" d="M439.175,182.236a19.223,19.223,0,0,1-3.23,10.829l11.636,6.578a19.28,19.28,0,0,0,3.229-10.831q-.019-5.886-3.253-7.72l-11.634-6.577q3.229,1.825,3.252,7.721" transform="translate(-435.923 -174.515)" fill="none"/>
    </clipPath>
    <clipPath id="clip-path-39">
      <path id="Path_78" data-name="Path 78" d="M428.317,162.752l11.633,6.577q15.26-8.568,24.2-5.7a12.5,12.5,0,0,1,2.292,1l-11.634-6.577a12.408,12.408,0,0,0-2.291-1,15.908,15.908,0,0,0-4.885-.72q-7.885,0-19.315,6.418" transform="translate(-428.317 -156.334)" fill="none"/>
    </clipPath>
    <clipPath id="clip-path-41">
      <path id="Path_90" data-name="Path 90" d="M315.806,430.023q-3.055,6.087-10.411,10.224-6.555,3.684-10.7,1.339,5.817,3.291,11.634,6.577,4.144,2.344,10.7-1.339,7.348-4.133,10.41-10.224,3.055-6.108,3.459-15.914l-11.634-6.577q-.4,9.8-3.459,15.914" transform="translate(-294.7 -414.109)" fill="none"/>
    </clipPath>
    <clipPath id="clip-path-43">
      <path id="Path_93" data-name="Path 93" d="M311.212,380.986q3.409,2.739,3.865,12.071l11.635,6.577q-.457-9.319-3.868-12.073a4.458,4.458,0,0,0-.579-.39q-5.813-3.289-11.633-6.577a4.394,4.394,0,0,1,.579.391" transform="translate(-310.633 -380.595)" fill="none"/>
    </clipPath>
    <clipPath id="clip-path-45">
      <path id="Path_96" data-name="Path 96" d="M284.041,456.752l11.635,6.576q-9.871-5.578-9.916-23.118l-11.634-6.577q.051,17.531,9.915,23.119" transform="translate(-274.126 -433.633)" fill="none"/>
    </clipPath>
    <clipPath id="clip-path-47">
      <path id="Path_100" data-name="Path 100" d="M301.865,369.389l11.633,6.578q16.631-9.343,25.469-4.926c.2.1.395.206.588.314q-5.821-3.293-11.636-6.578c-.191-.107-.385-.213-.584-.311a14.283,14.283,0,0,0-6.479-1.42q-7.7,0-18.99,6.343" transform="translate(-301.865 -363.046)" fill="none"/>
    </clipPath>
    <clipPath id="clip-path-49">
      <path id="Path_103" data-name="Path 103" d="M283.8,393.718q-9.769,16.728-9.716,34.511l11.634,6.576q-.051-17.777,9.716-34.51a67.494,67.494,0,0,1,25.427-25.516L309.224,368.2A67.545,67.545,0,0,0,283.8,393.718" transform="translate(-274.079 -368.201)" fill="none"/>
    </clipPath>
    <clipPath id="clip-path-51">
      <path id="Path_122" data-name="Path 122" d="M469.594,343.139q-3.055,6.087-10.411,10.224-6.557,3.682-10.7,1.339l11.635,6.576q4.144,2.344,10.7-1.339,7.35-4.131,10.41-10.224t3.461-15.913l-11.636-6.577q-.4,9.8-3.457,15.914" transform="translate(-448.485 -327.225)" fill="none"/>
    </clipPath>
    <clipPath id="clip-path-53">
      <path id="Path_125" data-name="Path 125" d="M465,294.1q3.409,2.741,3.865,12.073l11.635,6.577q-.455-9.319-3.867-12.073a4.746,4.746,0,0,0-.579-.393q-5.815-3.287-11.634-6.576a4.56,4.56,0,0,1,.579.391" transform="translate(-464.419 -293.71)" fill="none"/>
    </clipPath>
    <clipPath id="clip-path-55">
      <path id="Path_128" data-name="Path 128" d="M437.827,369.868l11.635,6.576q-9.871-5.578-9.918-23.118l-11.633-6.577q.051,17.529,9.915,23.119" transform="translate(-427.912 -346.749)" fill="none"/>
    </clipPath>
    <clipPath id="clip-path-57">
      <path id="Path_132" data-name="Path 132" d="M455.652,282.505l11.633,6.577q16.629-9.341,25.469-4.924c.2.1.393.205.586.313q-5.817-3.291-11.635-6.577c-.191-.108-.386-.213-.583-.311a14.276,14.276,0,0,0-6.48-1.42q-7.7,0-18.989,6.343" transform="translate(-455.652 -276.162)" fill="none"/>
    </clipPath>
    <clipPath id="clip-path-59">
      <path id="Path_135" data-name="Path 135" d="M437.582,306.834q-9.767,16.726-9.716,34.511l11.633,6.576q-.049-17.778,9.719-34.511a67.494,67.494,0,0,1,25.427-25.516l-11.633-6.577a67.547,67.547,0,0,0-25.429,25.517" transform="translate(-427.865 -281.317)" fill="none"/>
    </clipPath>
  </defs>
  <g id="hero_ppc" data-name="hero ppc" transform="translate(-1011 -213)">
    <g id="hero" transform="translate(1011 213)">
      <g id="Group_120" data-name="Group 120" clip-path="url(#clip-path)">
        <g id="Group_5" data-name="Group 5">
          <g id="Group_4" data-name="Group 4" clip-path="url(#clip-path)">
            <g id="Group_3" data-name="Group 3" transform="translate(36.672 513.269)" opacity="0.27" style="mix-blend-mode: multiply;isolation: isolate">
              <g id="Group_2" data-name="Group 2">
                <g id="Group_1" data-name="Group 1" clip-path="url(#clip-path-3)">
                  <path id="Path_1" data-name="Path 1" d="M35.325,492.958,163.1,420.716c8.487-4.8,22.285-4.8,30.829,0C193.932,420.717,26.849,497.751,35.325,492.958Z" transform="translate(-28.994 -417.118)" fill="#231f20"/>
                </g>
              </g>
            </g>
          </g>
        </g>
        <g id="Group_7" data-name="Group 7" transform="translate(38.264 364.647)">
          <g id="Group_6" data-name="Group 6" clip-path="url(#clip-path-4)">
            <rect id="Rectangle_3" data-name="Rectangle 3" width="280.336" height="309.977" transform="translate(-0.02)" fill="url(#linear-gradient)"/>
          </g>
        </g>
        <g id="Group_9" data-name="Group 9" transform="translate(177.867 443.573)">
          <g id="Group_8" data-name="Group 8" clip-path="url(#clip-path-5)">
            <rect id="Rectangle_4" data-name="Rectangle 4" width="144.725" height="234.023" transform="translate(-0.025 0)" fill="url(#linear-gradient-2)"/>
          </g>
        </g>
        <g id="Group_11" data-name="Group 11">
          <g id="Group_10" data-name="Group 10" clip-path="url(#clip-path)">
            <path id="Path_4" data-name="Path 4" d="M91.446,413.591q16.645,9.349,25.412,23.657a68.663,68.663,0,0,1,9.872,32.2l-.129.34L106.767,458.65q-.381-9.81-3.784-16.371-3.383-6.554-11.588-11.171-6.921-3.887-10.926.107t-4.021,14.108l-.061,20.617a41.687,41.687,0,0,0,4.283,18.88,29.309,29.309,0,0,0,11.924,12.973q7.354,4.131,10.434,1.473,3.1-2.652,3.54-11.984L126.4,498.422l.114.479q-.649,16.909-9.2,21.215t-24.771-4.8a71.322,71.322,0,0,1-26.43-26.044q-10.146-16.9-10.106-34.773l.059-20.477q.055-17.8,9.887-23.5t25.494,3.074" transform="translate(14.832 94.11)" fill="#bcbec0"/>
            <path id="Path_5" data-name="Path 5" d="M205.033,415.435q16.645-9.347,25.467-4.923t10.026,21.026l-.126.471-19.821,11.135q-.457-9.319-3.868-12.071-3.428-2.73-11.626,1.88-6.925,3.893-10.89,12.359a43.087,43.087,0,0,0-3.927,18.572l.062,20.617q.03,10.181,4.39,14,4.348,3.841,11.948-.433,7.35-4.127,10.42-10.232,3.055-6.106,3.447-15.908l19.835-11.14.116.335a62.962,62.962,0,0,1-9.049,31.47q-8.511,13.895-24.719,22.993-16.265,9.137-26.5,3.684-10.211-5.469-10.264-23.324l-.059-20.487q-.053-17.777,9.705-34.5a67.576,67.576,0,0,1,25.429-25.517" transform="translate(44.995 94.301)" fill="#f5f5f5"/>
          </g>
        </g>
        <g id="Group_13" data-name="Group 13" transform="translate(38.264 203.042)">
          <g id="Group_12" data-name="Group 12" clip-path="url(#clip-path-7)">
            <rect id="Rectangle_6" data-name="Rectangle 6" width="280.336" height="309.98" transform="translate(-0.02 0)" fill="url(#linear-gradient-3)"/>
          </g>
        </g>
        <g id="Group_15" data-name="Group 15" transform="translate(177.867 281.97)">
          <g id="Group_14" data-name="Group 14" clip-path="url(#clip-path-8)">
            <rect id="Rectangle_7" data-name="Rectangle 7" width="144.725" height="234.02" transform="translate(-0.025 0)" fill="url(#linear-gradient-4)"/>
          </g>
        </g>
        <g id="Group_17" data-name="Group 17">
          <g id="Group_16" data-name="Group 16" clip-path="url(#clip-path)">
            <path id="Path_8" data-name="Path 8" d="M119.286,316.537q9.128,14.083,9.09,28.5-.042,14.489-9.226,18.205t-24.8-5.059L79.162,349.65l-.1,33.624L58.63,371.794l.285-98.1L94.535,293.7a69.418,69.418,0,0,1,24.752,22.835m-14.78,25.719c2.316-1.425,3.485-4.262,3.5-8.536a25.394,25.394,0,0,0-3.435-12.66,25.717,25.717,0,0,0-10.085-9.839L79.3,302.691l-.085,29.44,15.186,8.53q6.64,3.73,10.107,1.595" transform="translate(15.527 63.09)" fill="#bcbec0"/>
            <path id="Path_9" data-name="Path 9" d="M230.705,274.015q9.2,3.776,9.227,18.207.042,14.475-9.09,28.483A69.588,69.588,0,0,1,206.09,343.48l-15.184,8.53.1,33.624-20.435,11.477-.286-98.1L205.9,279q15.616-8.771,24.8-4.987m-14.581,42.2a24.43,24.43,0,0,0,3.438-12.421c-.014-4.36-1.172-7.282-3.5-8.761q-3.474-2.243-10.106,1.488l-15.186,8.53.085,29.443,15.186-8.53a25.893,25.893,0,0,0,10.085-9.748" transform="translate(45.097 62.902)" fill="#f5f5f5"/>
          </g>
        </g>
        <g id="Group_19" data-name="Group 19" transform="translate(0 0.001)">
          <g id="Group_18" data-name="Group 18" clip-path="url(#clip-path-10)">
            <rect id="Rectangle_9" data-name="Rectangle 9" width="280.312" height="309.98" transform="translate(0 0)" fill="url(#linear-gradient-5)"/>
          </g>
        </g>
        <g id="Group_21" data-name="Group 21" transform="translate(139.602 78.93)">
          <g id="Group_20" data-name="Group 20" clip-path="url(#clip-path-11)">
            <rect id="Rectangle_10" data-name="Rectangle 10" width="144.721" height="234.021" transform="translate(-0.023 -0.001)" fill="url(#linear-gradient-6)"/>
          </g>
        </g>
        <g id="Group_23" data-name="Group 23" transform="translate(139.602 78.93)">
          <g id="Group_22" data-name="Group 22" clip-path="url(#clip-path-11)">
            <rect id="Rectangle_11" data-name="Rectangle 11" width="144.721" height="234.021" transform="translate(-0.023 -0.001)" fill="url(#linear-gradient-6)"/>
          </g>
        </g>
        <g id="Group_25" data-name="Group 25">
          <g id="Group_24" data-name="Group 24" clip-path="url(#clip-path)">
            <path id="Path_13" data-name="Path 13" d="M90.251,153.164q9.128,14.083,9.09,28.494-.042,14.493-9.226,18.207t-24.8-5.057l-15.188-8.53-.1,33.624L29.593,208.422l.287-98.1L65.5,130.329a69.415,69.415,0,0,1,24.75,22.835m-14.778,25.72c2.315-1.426,3.485-4.261,3.5-8.527a25.372,25.372,0,0,0-3.438-12.668,25.7,25.7,0,0,0-10.085-9.84l-15.184-8.531-.086,29.441,15.186,8.531q6.64,3.728,10.109,1.595" transform="translate(7.837 25.43)" fill="#bcbec0"/>
            <path id="Path_14" data-name="Path 14" d="M200.455,109.012q9.192,3.775,9.227,18.205.04,14.475-9.092,28.483a69.605,69.605,0,0,1-24.753,22.777l-15.184,8.529.1,33.624-20.435,11.478-.288-98.1L175.652,114q15.616-8.771,24.8-4.986m-14.581,42.2a24.46,24.46,0,0,0,3.437-12.421q-.021-6.54-3.5-8.762-3.476-2.243-10.11,1.489l-15.184,8.53.085,29.441,15.187-8.53a25.911,25.911,0,0,0,10.086-9.747" transform="translate(37.084 24.866)" fill="#f5f5f5"/>
            <path id="Path_15" data-name="Path 15" d="M424.421,123.623l-11.635-6.578-.1-35.638,11.633,6.578Z" transform="translate(109.292 18.765)" fill="#4e48c1"/>
            <path id="Path_16" data-name="Path 16" d="M432.321,67.434l-11.635-6.577.358-.2,11.635,6.577Z" transform="translate(111.412 13.982)" fill="#267a00"/>
            <path id="Path_17" data-name="Path 17" d="M432.6,77.1l-11.635-6.577,17.359-52.667,11.634,6.576Z" transform="translate(111.487 4.116)" fill="#4e48c1"/>
            <path id="Path_18" data-name="Path 18" d="M446.326,26.759l-11.633-6.577L456.813,7.757l11.633,6.577Z" transform="translate(115.122 1.788)" fill="#7062f2"/>
            <path id="Path_19" data-name="Path 19" d="M390.821,139.988l-11.633-6.577-5.062-16.25,11.633,6.577Z" transform="translate(99.081 27.007)" fill="#4e48c1"/>
            <path id="Path_20" data-name="Path 20" d="M367.422,122.024l-11.634-6.577,18.622-10.459,11.634,6.577Z" transform="translate(94.225 24.201)" fill="#4e48c1"/>
            <path id="Path_21" data-name="Path 21" d="M478,13.1,448.351,93.466l.1,34.5-20.307,11.407-.105-35.638L398.623,57.686l22-12.354L438.164,78.4l.358-.2,17.357-52.668Z" transform="translate(105.569 3.02)" fill="#7062f2"/>
            <path id="Path_22" data-name="Path 22" d="M401.059,52.881,389.426,46.3,411.419,33.95l11.635,6.577Z" transform="translate(103.133 7.826)" fill="#7062f2"/>
            <path id="Path_23" data-name="Path 23" d="M430.475,96.611l-11.633-6.578L389.426,43.99l11.633,6.577Z" transform="translate(103.133 10.14)" fill="#4e48c1"/>
            <path id="Path_24" data-name="Path 24" d="M384.084,117.177,372.451,110.6,363.19,80.637l11.634,6.577Z" transform="translate(96.185 18.588)" fill="#4e48c1"/>
            <path id="Path_25" data-name="Path 25" d="M343.82,184.827l-11.635-6.577L360.228,64.237l11.634,6.577Z" transform="translate(87.974 14.807)" fill="#4e48c1"/>
            <path id="Path_26" data-name="Path 26" d="M391.3,59.6,419.98,141.75l-20.488,11.508-5.062-16.249-27.663,15.538-4.886,21.838-20.5,11.513L369.424,71.885Zm-20.064,72.892,18.622-10.459L380.6,92.064l-.367.207Z" transform="translate(90.41 13.738)" fill="#7062f2"/>
            <path id="Path_27" data-name="Path 27" d="M365.99,73.116l-11.634-6.577L376.235,54.25l11.631,6.578Z" transform="translate(93.845 12.505)" fill="#7062f2"/>
            <path id="Path_28" data-name="Path 28" d="M314.755,140.445l-11.634-6.577a25.966,25.966,0,0,0,10.086-9.748l11.633,6.578a25.959,25.959,0,0,1-10.085,9.747" transform="translate(80.277 28.611)" fill="#4e48c1"/>
          </g>
        </g>
        <g id="Group_27" data-name="Group 27" transform="translate(383.398 152.733)">
          <g id="Group_26" data-name="Group 26" clip-path="url(#clip-path-14)">
            <path id="Path_29" data-name="Path 29" d="M314.755,140.445l-11.634-6.577a25.966,25.966,0,0,0,10.086-9.748l11.633,6.578a25.959,25.959,0,0,1-10.085,9.747" transform="translate(-303.121 -124.121)" fill="#4e48c1"/>
          </g>
        </g>
        <g id="Group_29" data-name="Group 29" transform="translate(408.052 110.539)">
          <g id="Group_28" data-name="Group 28" clip-path="url(#clip-path-15)">
            <path id="Path_31" data-name="Path 31" d="M334.249,96.41l-11.635-6.577a13.912,13.912,0,0,1,1.582.765l11.633,6.577a14.089,14.089,0,0,0-1.58-.765" transform="translate(-322.613 -89.832)" fill="#33a800"/>
          </g>
        </g>
        <g id="Group_31" data-name="Group 31">
          <g id="Group_30" data-name="Group 30" clip-path="url(#clip-path)">
            <path id="Path_33" data-name="Path 33" d="M310.858,106.79l11.633,6.577c.082.046.161.094.238.144q3.474,2.226,3.5,8.761a24.487,24.487,0,0,1-3.434,12.421l-11.634-6.577A24.52,24.52,0,0,0,314.6,115.7q-.021-6.538-3.5-8.762c-.081-.049-.158-.1-.239-.143" transform="translate(82.326 24.617)" fill="#4e48c1"/>
          </g>
        </g>
        <g id="Group_33" data-name="Group 33" transform="translate(393.182 131.406)">
          <g id="Group_32" data-name="Group 32" clip-path="url(#clip-path-17)">
            <path id="Path_34" data-name="Path 34" d="M322.791,134.693l-11.631-6.577A24.556,24.556,0,0,0,314.6,115.7q-.019-6.538-3.5-8.762c-.08-.05-.158-.1-.239-.143l11.634,6.576c.081.047.162.095.238.145q3.474,2.226,3.5,8.761a24.5,24.5,0,0,1-3.437,12.421" transform="translate(-310.857 -106.79)" fill="#4e48c1"/>
          </g>
        </g>
        <g id="Group_35" data-name="Group 35">
          <g id="Group_34" data-name="Group 34" clip-path="url(#clip-path)">
            <path id="Path_36" data-name="Path 36" d="M302.739,147.155l-11.631-6.577,15.194-8.536,11.635,6.577Z" transform="translate(77.095 30.437)" fill="#4e48c1"/>
            <path id="Path_37" data-name="Path 37" d="M314.647,101.6l-11.633-6.577q15.6-8.764,24.789-4.98l11.636,6.577q-9.181-3.784-24.793,4.98" transform="translate(80.248 20.494)" fill="#7062f2"/>
          </g>
        </g>
        <g id="Group_37" data-name="Group 37" transform="translate(383.262 109.399)">
          <g id="Group_36" data-name="Group 36" clip-path="url(#clip-path-19)">
            <path id="Path_38" data-name="Path 38" d="M314.647,101.6l-11.633-6.577q15.6-8.764,24.789-4.98l11.636,6.577q-9.181-3.784-24.793,4.98" transform="translate(-303.014 -88.905)" fill="#7062f2"/>
          </g>
        </g>
        <g id="Group_39" data-name="Group 39">
          <g id="Group_38" data-name="Group 38" clip-path="url(#clip-path)">
            <path id="Path_40" data-name="Path 40" d="M286.485,120.464l-11.633-6.577,35.62-20.007,11.633,6.576Z" transform="translate(72.79 21.641)" fill="#7062f2"/>
            <path id="Path_41" data-name="Path 41" d="M286.77,214.818l-11.634-6.577-.285-98.1,11.633,6.577Z" transform="translate(72.79 25.389)" fill="#4e48c1"/>
            <path id="Path_42" data-name="Path 42" d="M344.463,95.391q9.194,3.775,9.236,18.189.042,14.489-9.1,28.5a69.54,69.54,0,0,1-24.741,22.769l-15.2,8.536.1,33.624L284.334,218.48l-.285-98.1,35.62-20.008q15.6-8.762,24.793-4.98M329.89,137.584a24.5,24.5,0,0,0,3.437-12.421q-.017-6.538-3.5-8.761t-10.107,1.489l-15.2,8.536.085,29.44,15.2-8.536a25.933,25.933,0,0,0,10.085-9.747" transform="translate(75.226 21.726)" fill="#7062f2"/>
            <path id="Path_43" data-name="Path 43" d="M313.773,265.15l-11.634-6.576a25.966,25.966,0,0,0,10.086-9.748l11.633,6.578a25.948,25.948,0,0,1-10.085,9.746" transform="translate(80.017 57.358)" fill="#4e48c1"/>
          </g>
        </g>
        <g id="Group_41" data-name="Group 41" transform="translate(382.156 306.184)">
          <g id="Group_40" data-name="Group 40" clip-path="url(#clip-path-21)">
            <path id="Path_44" data-name="Path 44" d="M313.773,265.15l-11.634-6.576a25.966,25.966,0,0,0,10.086-9.748l11.633,6.578a25.948,25.948,0,0,1-10.085,9.746" transform="translate(-302.139 -248.826)" fill="#4e48c1"/>
          </g>
        </g>
        <g id="Group_43" data-name="Group 43" transform="translate(406.81 263.991)">
          <g id="Group_42" data-name="Group 42" clip-path="url(#clip-path-22)">
            <path id="Path_46" data-name="Path 46" d="M333.267,221.115l-11.635-6.577a13.893,13.893,0,0,1,1.581.765l11.633,6.577a14.065,14.065,0,0,0-1.579-.765" transform="translate(-321.631 -214.537)" fill="#33a800"/>
          </g>
        </g>
        <g id="Group_45" data-name="Group 45">
          <g id="Group_44" data-name="Group 44" clip-path="url(#clip-path)">
            <path id="Path_48" data-name="Path 48" d="M309.875,231.495q5.817,3.287,11.633,6.577.123.068.239.144,3.474,2.226,3.5,8.761a24.5,24.5,0,0,1-3.435,12.421l-11.633-6.577a24.532,24.532,0,0,0,3.437-12.421q-.019-6.538-3.5-8.762c-.08-.049-.158-.1-.239-.143" transform="translate(82.065 53.363)" fill="#4e48c1"/>
          </g>
        </g>
        <g id="Group_47" data-name="Group 47" transform="translate(391.94 284.858)">
          <g id="Group_46" data-name="Group 46" clip-path="url(#clip-path-24)">
            <path id="Path_49" data-name="Path 49" d="M321.809,259.4l-11.631-6.577a24.557,24.557,0,0,0,3.437-12.421q-.019-6.538-3.5-8.762c-.08-.05-.158-.1-.239-.143l11.634,6.577c.081.046.162.094.238.144q3.474,2.226,3.5,8.761a24.5,24.5,0,0,1-3.437,12.421" transform="translate(-309.875 -231.495)" fill="#4e48c1"/>
          </g>
        </g>
        <g id="Group_49" data-name="Group 49">
          <g id="Group_48" data-name="Group 48" clip-path="url(#clip-path)">
            <path id="Path_51" data-name="Path 51" d="M301.757,271.86l-11.631-6.577,15.194-8.536,11.635,6.578Z" transform="translate(76.835 59.184)" fill="#4e48c1"/>
            <path id="Path_52" data-name="Path 52" d="M313.665,226.308l-11.633-6.577q15.6-8.764,24.789-4.98l11.636,6.577q-9.181-3.784-24.793,4.98" transform="translate(79.988 49.24)" fill="#7062f2"/>
          </g>
        </g>
        <g id="Group_51" data-name="Group 51" transform="translate(382.02 262.85)">
          <g id="Group_50" data-name="Group 50" clip-path="url(#clip-path-26)">
            <path id="Path_53" data-name="Path 53" d="M313.665,226.308l-11.633-6.577q15.6-8.764,24.789-4.98l11.636,6.577q-9.181-3.784-24.793,4.98" transform="translate(-302.032 -213.61)" fill="#7062f2"/>
          </g>
        </g>
        <g id="Group_53" data-name="Group 53">
          <g id="Group_52" data-name="Group 52" clip-path="url(#clip-path)">
            <path id="Path_55" data-name="Path 55" d="M285.5,245.169l-11.633-6.577,35.62-20.007,11.633,6.576Z" transform="translate(72.53 50.387)" fill="#7062f2"/>
            <path id="Path_56" data-name="Path 56" d="M285.788,339.523l-11.634-6.577-.285-98.1,11.633,6.577Z" transform="translate(72.53 54.135)" fill="#4e48c1"/>
            <path id="Path_57" data-name="Path 57" d="M343.481,220.1q9.194,3.773,9.236,18.188.042,14.489-9.1,28.5a69.54,69.54,0,0,1-24.741,22.769l-15.2,8.536.1,33.624-20.425,11.471-.285-98.1,35.62-20.008q15.6-8.762,24.793-4.979m-14.572,42.192a24.5,24.5,0,0,0,3.437-12.421q-.017-6.538-3.5-8.761T318.739,242.6l-15.2,8.536.085,29.44,15.2-8.536a25.942,25.942,0,0,0,10.085-9.747" transform="translate(74.966 50.472)" fill="#7062f2"/>
          </g>
        </g>
        <g id="Group_55" data-name="Group 55" transform="translate(579.855 273.517)">
          <g id="Group_54" data-name="Group 54" clip-path="url(#clip-path-28)">
            <path id="Path_58" data-name="Path 58" d="M470.077,228.856l-11.633-6.577a3.366,3.366,0,0,0,.812.33l11.634,6.578a3.449,3.449,0,0,1-.813-.331" transform="translate(-458.444 -222.279)" fill="#33a800"/>
          </g>
        </g>
        <g id="Group_57" data-name="Group 57">
          <g id="Group_56" data-name="Group 56" clip-path="url(#clip-path)">
            <path id="Path_60" data-name="Path 60" d="M454.405,242.364l-11.634-6.577q-1.937-1.1-2.617-5.392a61.643,61.643,0,0,1-.785-9.411L451,227.562a60.883,60.883,0,0,0,.787,9.41q.679,4.293,2.616,5.392" transform="translate(116.36 50.94)" fill="#4e48c1"/>
          </g>
        </g>
        <g id="Group_59" data-name="Group 59" transform="translate(555.729 271.924)">
          <g id="Group_58" data-name="Group 58" clip-path="url(#clip-path-30)">
            <path id="Path_61" data-name="Path 61" d="M454.405,242.364l-11.634-6.577q-1.937-1.1-2.617-5.392a61.643,61.643,0,0,1-.785-9.411L451,227.562a60.883,60.883,0,0,0,.787,9.41q.679,4.293,2.616,5.392" transform="translate(-439.369 -220.984)" fill="#4e48c1"/>
          </g>
        </g>
        <g id="Group_61" data-name="Group 61">
          <g id="Group_60" data-name="Group 60" clip-path="url(#clip-path)">
            <path id="Path_63" data-name="Path 63" d="M451.006,228.672l-11.633-6.577-.018-5.926,11.633,6.578Z" transform="translate(116.356 49.83)" fill="#4e48c1"/>
            <path id="Path_64" data-name="Path 64" d="M451.688,224.406l-11.633-6.577c-.014-4.678-1.132-7.625-3.34-8.862l11.633,6.577c2.211,1.238,3.326,4.184,3.34,8.862" transform="translate(115.657 48.17)" fill="#4e48c1"/>
          </g>
        </g>
        <g id="Group_63" data-name="Group 63" transform="translate(552.372 257.135)">
          <g id="Group_62" data-name="Group 62" clip-path="url(#clip-path-32)">
            <path id="Path_65" data-name="Path 65" d="M451.688,224.406l-11.633-6.577c-.014-4.678-1.132-7.625-3.34-8.862l11.633,6.577c2.211,1.238,3.326,4.184,3.34,8.862" transform="translate(-436.715 -208.966)" fill="#4e48c1"/>
          </g>
        </g>
        <g id="Group_65" data-name="Group 65" transform="translate(560.827 238.915)">
          <g id="Group_64" data-name="Group 64" clip-path="url(#clip-path-33)">
            <path id="Path_67" data-name="Path 67" d="M455.034,201.392,443.4,194.815q6.212-1.517,9.743.479l11.633,6.577q-3.529-2-9.743-.479" transform="translate(-443.4 -194.159)" fill="#33a800"/>
          </g>
        </g>
        <g id="Group_67" data-name="Group 67">
          <g id="Group_66" data-name="Group 66" clip-path="url(#clip-path)">
            <path id="Path_69" data-name="Path 69" d="M440.149,204.582l-11.633-6.577a26.321,26.321,0,0,0,9.391-8.414l11.635,6.577a26.363,26.363,0,0,1-9.394,8.414" transform="translate(113.485 43.703)" fill="#4e48c1"/>
          </g>
        </g>
        <g id="Group_69" data-name="Group 69" transform="translate(542.002 233.293)">
          <g id="Group_68" data-name="Group 68" clip-path="url(#clip-path-35)">
            <path id="Path_70" data-name="Path 70" d="M440.149,204.582l-11.633-6.577a26.321,26.321,0,0,0,9.391-8.414l11.635,6.577a26.363,26.363,0,0,1-9.394,8.414" transform="translate(-428.516 -189.59)" fill="#4e48c1"/>
          </g>
        </g>
        <g id="Group_71" data-name="Group 71">
          <g id="Group_70" data-name="Group 70" clip-path="url(#clip-path)">
            <path id="Path_72" data-name="Path 72" d="M435.923,174.515l11.634,6.577q3.231,1.825,3.254,7.72a19.289,19.289,0,0,1-3.23,10.83l-11.635-6.577a19.242,19.242,0,0,0,3.229-10.83q-.015-5.886-3.252-7.72" transform="translate(115.447 40.228)" fill="#4e48c1"/>
          </g>
        </g>
        <g id="Group_73" data-name="Group 73" transform="translate(551.37 214.743)">
          <g id="Group_72" data-name="Group 72" clip-path="url(#clip-path-37)">
            <path id="Path_73" data-name="Path 73" d="M447.581,199.643l-11.635-6.577a19.239,19.239,0,0,0,3.229-10.83q-.015-5.886-3.252-7.72l11.634,6.577q3.233,1.825,3.254,7.72a19.289,19.289,0,0,1-3.23,10.83" transform="translate(-435.923 -174.515)" fill="#4e48c1"/>
          </g>
        </g>
        <g id="Group_75" data-name="Group 75">
          <g id="Group_74" data-name="Group 74" clip-path="url(#clip-path)">
            <path id="Path_75" data-name="Path 75" d="M429.518,210.559l-11.633-6.577,13.446-7.553,11.633,6.577Z" transform="translate(110.67 45.279)" fill="#4e48c1"/>
            <path id="Path_76" data-name="Path 76" d="M454.807,158.049l11.634,6.577a12.323,12.323,0,0,0-2.291-1q-8.94-2.874-24.2,5.7l-11.633-6.578q15.256-8.568,24.2-5.7a12.286,12.286,0,0,1,2.291,1" transform="translate(113.433 36.037)" fill="#4e48c1"/>
          </g>
        </g>
        <g id="Group_77" data-name="Group 77" transform="translate(541.75 192.371)">
          <g id="Group_76" data-name="Group 76" clip-path="url(#clip-path-39)">
            <path id="Path_77" data-name="Path 77" d="M439.951,169.329l-11.633-6.577q15.256-8.568,24.2-5.7a12.308,12.308,0,0,1,2.289.994l11.634,6.577a12.4,12.4,0,0,0-2.291-.994q-8.94-2.874-24.2,5.7" transform="translate(-428.317 -156.334)" fill="#4e48c1"/>
          </g>
        </g>
        <g id="Group_79" data-name="Group 79">
          <g id="Group_78" data-name="Group 78" clip-path="url(#clip-path)">
            <path id="Path_79" data-name="Path 79" d="M413.557,281.632l-11.634-6.577-.285-98.1,11.633,6.577Z" transform="translate(106.367 40.79)" fill="#4e48c1"/>
            <path id="Path_80" data-name="Path 80" d="M413.272,187.082,401.639,180.5l33.745-18.955,11.633,6.577Z" transform="translate(106.368 37.239)" fill="#4e48c1"/>
            <path id="Path_81" data-name="Path 81" d="M479.925,238.141c.694,2.89,1.882,4.573,3.573,5.016V244.5L462.528,256.28c-1.605-.491-2.665-2.375-3.182-5.637a61.194,61.194,0,0,1-.787-9.41l-.018-5.926c-.014-4.678-1.13-7.624-3.34-8.862q-3.332-1.827-9.716,1.752l-14.049,7.891.11,37.593-20.425,11.471-.286-98.1L444.581,168.1q15.258-8.568,24.2-5.7t8.977,16.552a34.45,34.45,0,0,1-3.544,15.09,58.483,58.483,0,0,1-10.555,14.839q8.086-1.975,11.628,2,3.544,3.992,3.574,12.872l.018,6.209a35.544,35.544,0,0,0,1.047,8.179m-25.7-35.538a19.289,19.289,0,0,0,3.23-10.83q-.019-5.991-3.37-7.784t-9.453,1.628L431.311,193.1l.073,25.47,13.446-7.553a26.363,26.363,0,0,0,9.394-8.414" transform="translate(108.803 37.269)" fill="#7062f2"/>
            <path id="Path_82" data-name="Path 82" d="M369.649,278.58,358.015,272l40.572-22.789,11.633,6.577Z" transform="translate(94.814 57.447)" fill="#4e48c1"/>
            <path id="Path_83" data-name="Path 83" d="M369.551,243.82l-11.633-6.578,34.417-19.331,11.634,6.577Z" transform="translate(94.789 50.231)" fill="#4e48c1"/>
            <path id="Path_84" data-name="Path 84" d="M353.6,316.247l-11.635-6.577-.286-98.1,11.633,6.577Z" transform="translate(90.489 48.77)" fill="#4e48c1"/>
            <path id="Path_85" data-name="Path 85" d="M353.314,224.577,341.681,218,402.8,183.673l11.633,6.576Z" transform="translate(90.489 42.339)" fill="#7062f2"/>
            <path id="Path_86" data-name="Path 86" d="M411.993,189.018l.052,17.519-40.69,22.856.061,21.089,34.419-19.334.051,17.519L371.466,268l.073,24.458,40.571-22.789.052,17.519-61,34.26-.287-98.1Z" transform="translate(92.924 43.571)" fill="#7062f2"/>
            <path id="Path_87" data-name="Path 87" d="M325.757,422.772l-11.635-6.577,19.824-11.134,11.633,6.577Z" transform="translate(83.19 93.372)" fill="#7062f2"/>
            <path id="Path_88" data-name="Path 88" d="M306.333,448.163,294.7,441.586q4.145,2.344,10.7-1.339,7.352-4.131,10.411-10.224t3.458-15.914l11.635,6.577q-.4,9.8-3.461,15.913-3.053,6.089-10.41,10.226-6.557,3.684-10.7,1.339" transform="translate(78.046 95.458)" fill="#4e48c1"/>
          </g>
        </g>
        <g id="Group_81" data-name="Group 81" transform="translate(372.747 509.567)">
          <g id="Group_80" data-name="Group 80" clip-path="url(#clip-path-41)">
            <path id="Path_89" data-name="Path 89" d="M306.333,448.163,294.7,441.586q4.145,2.344,10.7-1.339,7.352-4.131,10.411-10.224t3.458-15.914l11.635,6.577q-.4,9.8-3.461,15.913-3.053,6.089-10.41,10.226-6.557,3.684-10.7,1.339" transform="translate(-294.7 -414.109)" fill="#4e48c1"/>
          </g>
        </g>
        <g id="Group_83" data-name="Group 83">
          <g id="Group_82" data-name="Group 82" clip-path="url(#clip-path)">
            <path id="Path_91" data-name="Path 91" d="M310.633,380.6q5.817,3.287,11.633,6.577a4.384,4.384,0,0,1,.579.391q3.411,2.741,3.868,12.073l-11.635-6.577q-.453-9.319-3.865-12.073a4.647,4.647,0,0,0-.579-.391" transform="translate(82.266 87.732)" fill="#4e48c1"/>
          </g>
        </g>
        <g id="Group_85" data-name="Group 85" transform="translate(392.899 468.327)">
          <g id="Group_84" data-name="Group 84" clip-path="url(#clip-path-43)">
            <path id="Path_92" data-name="Path 92" d="M326.713,399.635l-11.635-6.577q-.453-9.319-3.865-12.071a4.563,4.563,0,0,0-.579-.393l11.633,6.577a4.418,4.418,0,0,1,.579.391q3.411,2.743,3.868,12.073" transform="translate(-310.633 -380.595)" fill="#4e48c1"/>
          </g>
        </g>
        <g id="Group_87" data-name="Group 87">
          <g id="Group_86" data-name="Group 86" clip-path="url(#clip-path)">
            <path id="Path_94" data-name="Path 94" d="M295.676,463.328l-11.635-6.577q-9.868-5.578-9.915-23.118l11.633,6.577q.051,17.529,9.918,23.118" transform="translate(72.598 99.958)" fill="#4e48c1"/>
          </g>
        </g>
        <g id="Group_89" data-name="Group 89" transform="translate(346.724 533.591)">
          <g id="Group_88" data-name="Group 88" clip-path="url(#clip-path-45)">
            <path id="Path_95" data-name="Path 95" d="M295.676,463.328l-11.635-6.577q-9.868-5.578-9.915-23.118l11.633,6.577q.051,17.529,9.918,23.118" transform="translate(-274.126 -433.633)" fill="#4e48c1"/>
          </g>
        </g>
        <g id="Group_91" data-name="Group 91">
          <g id="Group_90" data-name="Group 90" clip-path="url(#clip-path)">
            <path id="Path_97" data-name="Path 97" d="M285.771,444.048l-11.633-6.577-.059-20.487,11.633,6.577Z" transform="translate(72.585 96.12)" fill="#4e48c1"/>
            <path id="Path_98" data-name="Path 98" d="M327.918,364.777q5.817,3.287,11.635,6.578c-.192-.108-.387-.213-.587-.313q-8.832-4.422-25.467,4.924l-11.634-6.577q16.631-9.343,25.469-4.924c.2.1.393.2.584.311" transform="translate(79.944 83.687)" fill="#4e48c1"/>
          </g>
        </g>
        <g id="Group_93" data-name="Group 93" transform="translate(381.809 446.733)">
          <g id="Group_92" data-name="Group 92" clip-path="url(#clip-path-47)">
            <path id="Path_99" data-name="Path 99" d="M313.5,375.967l-11.633-6.577q16.629-9.343,25.469-4.924c.2.1.392.2.583.311l11.636,6.578c-.194-.108-.388-.213-.587-.313q-8.834-4.421-25.469,4.924" transform="translate(-301.865 -363.046)" fill="#4e48c1"/>
          </g>
        </g>
        <g id="Group_95" data-name="Group 95">
          <g id="Group_94" data-name="Group 94" clip-path="url(#clip-path)">
            <path id="Path_101" data-name="Path 101" d="M285.712,434.806l-11.633-6.577q-.053-17.779,9.715-34.511A67.544,67.544,0,0,1,309.224,368.2l11.633,6.577a67.485,67.485,0,0,0-25.427,25.516q-9.771,16.728-9.718,34.511" transform="translate(72.585 84.875)" fill="#4e48c1"/>
          </g>
        </g>
        <g id="Group_97" data-name="Group 97" transform="translate(346.664 453.076)">
          <g id="Group_96" data-name="Group 96" clip-path="url(#clip-path-49)">
            <path id="Path_102" data-name="Path 102" d="M285.712,434.806l-11.633-6.577q-.053-17.779,9.715-34.511A67.544,67.544,0,0,1,309.224,368.2l11.633,6.577a67.485,67.485,0,0,0-25.427,25.516q-9.771,16.728-9.718,34.511" transform="translate(-274.079 -368.201)" fill="#4e48c1"/>
          </g>
        </g>
        <g id="Group_99" data-name="Group 99">
          <g id="Group_98" data-name="Group 98" clip-path="url(#clip-path)">
            <path id="Path_104" data-name="Path 104" d="M318.422,374.735q16.631-9.341,25.469-4.924,8.815,4.426,10.015,21.032l-.115.465-19.833,11.14q-.455-9.317-3.867-12.071c-2.274-1.825-6.158-1.19-11.617,1.875q-6.921,3.893-10.889,12.36a42.963,42.963,0,0,0-3.936,18.577l.059,20.617q.03,10.178,4.392,14t11.956-.439q7.35-4.131,10.41-10.224t3.461-15.914l19.821-11.134.129.33a62.946,62.946,0,0,1-9.061,31.473q-8.492,13.889-24.707,22.991-16.282,9.142-26.5,3.682-10.23-5.46-10.275-23.316l-.059-20.488q-.049-17.779,9.718-34.511a67.494,67.494,0,0,1,25.427-25.516" transform="translate(75.021 84.919)" fill="#7062f2"/>
            <path id="Path_105" data-name="Path 105" d="M369.579,413.121l-11.633-6.577,37.792-21.228,11.633,6.577Z" transform="translate(94.796 88.821)" fill="#4e48c1"/>
            <path id="Path_106" data-name="Path 106" d="M353.523,451.087l-11.633-6.578-.287-98.1,11.634,6.576Z" transform="translate(90.468 79.852)" fill="#4e48c1"/>
            <path id="Path_107" data-name="Path 107" d="M353.238,355.136,341.6,348.559l20.435-11.478,11.633,6.577Z" transform="translate(90.468 77.702)" fill="#4e48c1"/>
            <path id="Path_108" data-name="Path 108" d="M371.236,342.425l.235,80.583,37.792-21.228.053,17.521-58.229,32.7-.285-98.1Z" transform="translate(92.904 78.934)" fill="#7062f2"/>
            <path id="Path_109" data-name="Path 109" d="M410.465,418.212l-11.634-6.578-.286-98.1,11.633,6.576Z" transform="translate(105.548 72.274)" fill="#4e48c1"/>
            <path id="Path_110" data-name="Path 110" d="M410.178,322.247l-11.633-6.577,20.307-11.406,11.634,6.576Z" transform="translate(105.548 70.137)" fill="#4e48c1"/>
            <path id="Path_111" data-name="Path 111" d="M428.05,309.609l.288,98.1-20.309,11.406-.287-98.1Z" transform="translate(107.984 71.369)" fill="#7062f2"/>
            <path id="Path_112" data-name="Path 112" d="M550.823,326.457l-11.634-6.577L519.42,291.571l11.633,6.577Z" transform="translate(137.56 67.211)" fill="#7062f2"/>
            <path id="Path_113" data-name="Path 113" d="M523.574,286.634l-11.631-6.58,6.932-3.893,11.634,6.577Z" transform="translate(135.58 63.659)" fill="#4e48c1"/>
            <path id="Path_114" data-name="Path 114" d="M529.057,291.962l-11.633-6.577L536.6,236.148l11.633,6.577Z" transform="translate(137.031 54.435)" fill="#4e48c1"/>
            <path id="Path_115" data-name="Path 115" d="M544.216,245.388l-11.633-6.577L557.9,224.592l11.635,6.577Z" transform="translate(141.046 51.772)" fill="#4e48c1"/>
            <path id="Path_116" data-name="Path 116" d="M507.33,266.17,495.7,259.593l20.435-11.477,11.633,6.576Z" transform="translate(131.277 57.194)" fill="#4e48c1"/>
            <path id="Path_117" data-name="Path 117" d="M507.616,362.122l-11.633-6.578-.286-98.1,11.633,6.576Z" transform="translate(131.277 59.344)" fill="#4e48c1"/>
            <path id="Path_118" data-name="Path 118" d="M576.863,229.937l-27.05,59.669L579.5,326.72,554.67,340.664,534.9,312.356l-9.4,5.28.114,39.348L505.18,368.462l-.285-98.1,20.435-11.478.111,38.407,6.934-3.9,19.174-49.238Z" transform="translate(133.713 53.004)" fill="#7062f2"/>
            <path id="Path_119" data-name="Path 119" d="M479.543,335.887l-11.635-6.577,19.824-11.135,11.633,6.578Z" transform="translate(123.918 73.344)" fill="#7062f2"/>
            <path id="Path_120" data-name="Path 120" d="M460.12,361.279,448.486,354.7q4.146,2.344,10.7-1.339,7.352-4.131,10.411-10.224t3.458-15.914l11.635,6.577q-.4,9.8-3.461,15.914-3.053,6.087-10.41,10.224-6.557,3.684-10.7,1.339" transform="translate(118.774 75.43)" fill="#4e48c1"/>
          </g>
        </g>
        <g id="Group_101" data-name="Group 101" transform="translate(567.259 402.655)">
          <g id="Group_100" data-name="Group 100" clip-path="url(#clip-path-51)">
            <path id="Path_121" data-name="Path 121" d="M460.12,361.279,448.486,354.7q4.146,2.344,10.7-1.339,7.352-4.131,10.411-10.224t3.458-15.914l11.635,6.577q-.4,9.8-3.461,15.914-3.053,6.087-10.41,10.224-6.557,3.684-10.7,1.339" transform="translate(-448.485 -327.225)" fill="#4e48c1"/>
          </g>
        </g>
        <g id="Group_103" data-name="Group 103">
          <g id="Group_102" data-name="Group 102" clip-path="url(#clip-path)">
            <path id="Path_123" data-name="Path 123" d="M464.419,293.71q5.817,3.287,11.633,6.577a4.382,4.382,0,0,1,.579.391q3.411,2.741,3.868,12.073l-11.635-6.577Q468.41,296.855,465,294.1a4.649,4.649,0,0,0-.579-.391" transform="translate(122.994 67.704)" fill="#4e48c1"/>
          </g>
        </g>
        <g id="Group_105" data-name="Group 105" transform="translate(587.413 361.414)">
          <g id="Group_104" data-name="Group 104" clip-path="url(#clip-path-53)">
            <path id="Path_124" data-name="Path 124" d="M480.5,312.751l-11.635-6.577Q468.41,296.855,465,294.1a4.575,4.575,0,0,0-.579-.393l11.633,6.577a4.5,4.5,0,0,1,.579.391q3.411,2.743,3.868,12.073" transform="translate(-464.419 -293.71)" fill="#4e48c1"/>
          </g>
        </g>
        <g id="Group_107" data-name="Group 107">
          <g id="Group_106" data-name="Group 106" clip-path="url(#clip-path)">
            <path id="Path_126" data-name="Path 126" d="M449.464,376.444q-5.819-3.287-11.636-6.577-9.868-5.578-9.915-23.118l11.633,6.577q.051,17.529,9.919,23.118" transform="translate(113.326 79.93)" fill="#4e48c1"/>
          </g>
        </g>
        <g id="Group_109" data-name="Group 109" transform="translate(541.238 426.679)">
          <g id="Group_108" data-name="Group 108" clip-path="url(#clip-path-55)">
            <path id="Path_127" data-name="Path 127" d="M449.464,376.444l-11.636-6.577q-9.868-5.578-9.915-23.118l11.633,6.577q.051,17.529,9.919,23.118" transform="translate(-427.912 -346.749)" fill="#4e48c1"/>
          </g>
        </g>
        <g id="Group_111" data-name="Group 111">
          <g id="Group_110" data-name="Group 110" clip-path="url(#clip-path)">
            <path id="Path_129" data-name="Path 129" d="M439.558,357.164l-11.633-6.577-.059-20.487,11.633,6.577Z" transform="translate(113.313 76.092)" fill="#4e48c1"/>
            <path id="Path_130" data-name="Path 130" d="M481.7,277.893q5.817,3.287,11.635,6.578c-.192-.108-.387-.213-.587-.313q-8.832-4.422-25.467,4.924l-11.634-6.577q16.631-9.343,25.469-4.924c.2.1.393.2.584.311" transform="translate(120.672 63.659)" fill="#4e48c1"/>
          </g>
        </g>
        <g id="Group_113" data-name="Group 113" transform="translate(576.324 339.821)">
          <g id="Group_112" data-name="Group 112" clip-path="url(#clip-path-57)">
            <path id="Path_131" data-name="Path 131" d="M467.285,289.082l-11.633-6.577q16.629-9.343,25.469-4.924c.2.1.392.2.583.311l11.636,6.578c-.194-.108-.388-.213-.587-.313q-8.834-4.422-25.469,4.924" transform="translate(-455.652 -276.162)" fill="#4e48c1"/>
          </g>
        </g>
        <g id="Group_115" data-name="Group 115">
          <g id="Group_114" data-name="Group 114" clip-path="url(#clip-path)">
            <path id="Path_133" data-name="Path 133" d="M439.5,347.921l-11.633-6.577q-.055-17.778,9.715-34.511a67.544,67.544,0,0,1,25.429-25.516l11.633,6.577a67.485,67.485,0,0,0-25.427,25.516q-9.771,16.728-9.718,34.511" transform="translate(113.313 64.847)" fill="#4e48c1"/>
          </g>
        </g>
        <g id="Group_117" data-name="Group 117" transform="translate(541.178 346.164)">
          <g id="Group_116" data-name="Group 116" clip-path="url(#clip-path-59)">
            <path id="Path_134" data-name="Path 134" d="M439.5,347.921l-11.633-6.577q-.055-17.778,9.715-34.511a67.544,67.544,0,0,1,25.429-25.516l11.633,6.577a67.485,67.485,0,0,0-25.427,25.516q-9.771,16.728-9.718,34.511" transform="translate(-427.865 -281.317)" fill="#4e48c1"/>
          </g>
        </g>
        <g id="Group_119" data-name="Group 119">
          <g id="Group_118" data-name="Group 118" clip-path="url(#clip-path)">
            <path id="Path_136" data-name="Path 136" d="M472.208,287.85q16.631-9.343,25.469-4.924,8.815,4.426,10.015,21.032l-.115.465-19.833,11.14q-.455-9.317-3.867-12.071c-2.274-1.826-6.159-1.19-11.617,1.875q-6.921,3.893-10.889,12.361a42.963,42.963,0,0,0-3.936,18.577l.059,20.617q.03,10.178,4.391,14t11.956-.439q7.35-4.131,10.41-10.224t3.461-15.914l19.821-11.134.129.33a62.947,62.947,0,0,1-9.061,31.473Q490.109,378.9,473.894,388q-16.282,9.142-26.5,3.682-10.23-5.46-10.276-23.316l-.059-20.488q-.049-17.778,9.716-34.511a67.507,67.507,0,0,1,25.428-25.516" transform="translate(115.749 64.891)" fill="#7062f2"/>
          </g>
        </g>
      </g>
    </g>
  </g>
</svg>
