<svg xmlns="http://www.w3.org/2000/svg" width="80.823" height="104.394" viewBox="0 0 80.823 104.394">
  <g id="rocket" transform="translate(-5.87 1.269)">
    <path id="Path_139" data-name="Path 139" d="M18,29.644a7.571,7.571,0,0,1-3.016-.766.547.547,0,0,0-.766.534L14.463,33a.275.275,0,0,0,.443.2l1.02-.773a.278.278,0,0,1,.4.07l1.441,2.257a.276.276,0,0,0,.464,0l1.441-2.257a.278.278,0,0,1,.4-.07l1.02.773a.275.275,0,0,0,.443-.2l.246-3.586a.544.544,0,0,0-.766-.534A7.6,7.6,0,0,1,18,29.644Z" transform="translate(28.242 66.25)" fill="none" stroke="#7062f2" stroke-width="4"/>
    <path id="Path_140" data-name="Path 140" d="M84.041,66.2l-12.8-11.53c0-37.1-24.853-53.542-24.853-53.542S21.3,17.563,21.3,54.667L8.5,66.2a1.807,1.807,0,0,0-.587,1.667l4.907,26.254a2.1,2.1,0,0,0,3.147,1.268L33.855,84.726s5.52,4.7,12.56,4.7,12.293-4.7,12.293-4.7L76.6,95.387a2.112,2.112,0,0,0,3.147-1.268l4.933-26.278A1.941,1.941,0,0,0,84.041,66.2ZM46.388,42.456c-4.533,0-8.187-3.358-8.187-7.515s3.68-7.515,8.187-7.515c4.533,0,8.187,3.358,8.187,7.515S50.922,42.456,46.388,42.456Z" transform="translate(0)" fill="none" stroke="#7062f2" stroke-width="4"/>
  </g>
</svg>
