<svg xmlns="http://www.w3.org/2000/svg" xmlns:xlink="http://www.w3.org/1999/xlink" width="137.099" height="100" viewBox="0 0 137.099 100">
  <defs>
    <linearGradient id="linear-gradient" x1="0.725" x2="-0.178" y2="1.521" gradientUnits="objectBoundingBox">
      <stop offset="0" stop-color="#7062f2"/>
      <stop offset="0.516" stop-color="#ac52f3"/>
      <stop offset="1" stop-color="#ad52f3"/>
    </linearGradient>
  </defs>
  <path id="_04" data-name="04" d="M36.814,120.352c-8.737,0-15.819-6.716-15.819-15s7.082-15,15.819-15c.466,0,.926.023,1.382.06l17-26.873a14.376,14.376,0,0,1-2.567-8.188c0-8.284,7.082-15,15.819-15s15.819,6.716,15.819,15A14.375,14.375,0,0,1,81.7,63.54l17,26.873q.689-.058,1.382-.06c.352,0,.7.015,1.046.036l28.072-46.581a14.393,14.393,0,0,1-2.753-8.455c0-8.284,7.082-15,15.819-15s15.819,6.716,15.819,15-7.082,15-15.819,15c-.353,0-.7-.015-1.046-.036L113.157,96.9a14.392,14.392,0,0,1,2.753,8.455c0,8.284-7.082,15-15.819,15s-15.819-6.716-15.819-15a14.378,14.378,0,0,1,2.567-8.188l-17-26.872c-.456.037-.916.06-1.382.06s-.926-.023-1.382-.06l-17,26.873a14.374,14.374,0,0,1,2.567,8.187c0,8.284-7.082,15-15.819,15Z" transform="translate(-20.995 -20.352)" fill="url(#linear-gradient)"/>
</svg>
