<svg xmlns="http://www.w3.org/2000/svg" xmlns:xlink="http://www.w3.org/1999/xlink" width="111.738" height="100" viewBox="0 0 111.738 100">
  <defs>
    <linearGradient id="linear-gradient" x1="0.725" x2="-0.178" y2="1.521" gradientUnits="objectBoundingBox">
      <stop offset="0" stop-color="#7062f2"/>
      <stop offset="0.516" stop-color="#ac52f3"/>
      <stop offset="1" stop-color="#ad52f3"/>
    </linearGradient>
  </defs>
  <path id="customers" d="M16.761,45.107c6.163,0,11.174-6.406,11.174-14.286S22.924,16.536,16.761,16.536,5.587,22.942,5.587,30.821,10.6,45.107,16.761,45.107Zm78.217,0c6.163,0,11.174-6.406,11.174-14.286S101.14,16.536,94.977,16.536,83.8,22.942,83.8,30.821,88.814,45.107,94.977,45.107Zm5.587,7.143H89.39A10.085,10.085,0,0,0,81.516,56.4c7.036,4.933,12.029,13.839,13.112,24.42h11.523c3.09,0,5.587-3.192,5.587-7.143V66.536C111.738,58.656,106.727,52.25,100.564,52.25Zm-44.7,0c10.807,0,19.554-11.183,19.554-25s-8.747-25-19.554-25-19.554,11.183-19.554,25S45.062,52.25,55.869,52.25Zm13.409,7.143H67.829a22.736,22.736,0,0,1-11.959,3.571A22.783,22.783,0,0,1,43.91,59.393H42.46c-11.1,0-20.113,11.518-20.113,25.714v6.429c0,5.915,3.754,10.714,8.38,10.714H81.01c4.627,0,8.38-4.8,8.38-10.714V85.107C89.39,70.911,80.382,59.393,69.278,59.393ZM30.222,56.4a10.085,10.085,0,0,0-7.874-4.152H11.174C5.011,52.25,0,58.656,0,66.536v7.143c0,3.951,2.5,7.143,5.587,7.143H17.092C18.192,70.241,23.186,61.335,30.222,56.4Z" transform="translate(0 -2.25)" fill="url(#linear-gradient)"/>
</svg>
