<svg xmlns="http://www.w3.org/2000/svg" xmlns:xlink="http://www.w3.org/1999/xlink" width="128.521" height="100" viewBox="0 0 128.521 100">
  <defs>
    <linearGradient id="linear-gradient" x1="0.725" x2="-0.178" y2="1.521" gradientUnits="objectBoundingBox">
      <stop offset="0" stop-color="#7062f2"/>
      <stop offset="0.516" stop-color="#ac52f3"/>
      <stop offset="1" stop-color="#ad52f3"/>
    </linearGradient>
  </defs>
  <path id="moniroting" d="M46.589,43.75H57.834V54.687a1.585,1.585,0,0,0,1.607,1.563H69.08a1.585,1.585,0,0,0,1.607-1.562V43.75H81.932a1.585,1.585,0,0,0,1.606-1.562V32.813a1.585,1.585,0,0,0-1.606-1.563H70.686V20.313A1.585,1.585,0,0,0,69.08,18.75H59.441a1.585,1.585,0,0,0-1.607,1.563V31.25H46.589a1.585,1.585,0,0,0-1.607,1.563v9.375A1.585,1.585,0,0,0,46.589,43.75Zm69.08-34.375A9.538,9.538,0,0,0,106.03,0H22.491a9.538,9.538,0,0,0-9.639,9.375V75H115.669ZM102.816,62.5H25.7v-50h77.112Zm22.491,18.75H76.618a6.252,6.252,0,0,1-6.575,6.25H57.834c-3.753,0-6.627-3.412-6.581-6.25H3.213A3.17,3.17,0,0,0,0,84.375V87.5A12.717,12.717,0,0,0,12.852,100H115.669a12.717,12.717,0,0,0,12.852-12.5V84.375A3.17,3.17,0,0,0,125.308,81.25Z" fill="url(#linear-gradient)"/>
</svg>
