<svg xmlns="http://www.w3.org/2000/svg" xmlns:xlink="http://www.w3.org/1999/xlink" width="100" height="119.637" viewBox="0 0 100 119.637">
  <defs>
    <linearGradient id="linear-gradient" x1="0.725" x2="-0.178" y2="1.521" gradientUnits="objectBoundingBox">
      <stop offset="0" stop-color="#7062f2"/>
      <stop offset="0.516" stop-color="#ac52f3"/>
      <stop offset="1" stop-color="#ad52f3"/>
    </linearGradient>
  </defs>
  <path id="watch" d="M101.119,71.034c0,26.848-22.378,48.6-50,48.6s-50-21.754-50-48.6c0-24.3,18.34-44.443,42.305-48.018V14.955H36.7a2.853,2.853,0,0,1-2.884-2.8V2.8A2.853,2.853,0,0,1,36.7,0H65.544a2.853,2.853,0,0,1,2.884,2.8v9.347a2.853,2.853,0,0,1-2.884,2.8h-6.73v8.061A50.38,50.38,0,0,1,82.779,33.438l6.61-6.426a2.946,2.946,0,0,1,4.086,0l6.8,6.613a2.752,2.752,0,0,1,0,3.972l-7.067,6.87-.144.14A47.156,47.156,0,0,1,101.119,71.034ZM58.814,79.446v-35.4a2.853,2.853,0,0,0-2.884-2.8H46.315a2.853,2.853,0,0,0-2.884,2.8v35.4a2.853,2.853,0,0,0,2.884,2.8h9.615A2.853,2.853,0,0,0,58.814,79.446Z" transform="translate(-1.125)" fill="url(#linear-gradient)"/>
</svg>
