<svg xmlns="http://www.w3.org/2000/svg" xmlns:xlink="http://www.w3.org/1999/xlink" width="121.823" height="119.011" viewBox="0 0 121.823 119.011">
  <defs>
    <linearGradient id="linear-gradient" x1="0.725" x2="-0.178" y2="1.521" gradientUnits="objectBoundingBox">
      <stop offset="0" stop-color="#7062f2"/>
      <stop offset="0.516" stop-color="#ac52f3"/>
      <stop offset="1" stop-color="#ad52f3"/>
    </linearGradient>
  </defs>
  <g id="insta" transform="translate(-1069.735 -765.123)">
    <path id="Icon_simple-instagram" data-name="Icon simple-instagram" d="M41.645,0C30.332,0,28.919.052,24.477.25A30.708,30.708,0,0,0,14.368,2.186a20.394,20.394,0,0,0-7.378,4.8,20.32,20.32,0,0,0-4.8,7.378A30.618,30.618,0,0,0,.25,24.477C.042,28.919,0,30.332,0,41.645S.052,54.371.25,58.813A30.727,30.727,0,0,0,2.186,68.923a20.423,20.423,0,0,0,4.8,7.378,20.365,20.365,0,0,0,7.378,4.8A30.746,30.746,0,0,0,24.477,83.04c4.442.208,5.855.25,17.168.25s12.726-.052,17.168-.25A30.817,30.817,0,0,0,68.923,81.1,21.283,21.283,0,0,0,81.1,68.923,30.727,30.727,0,0,0,83.04,58.813c.208-4.442.25-5.855.25-17.168s-.052-12.726-.25-17.168A30.8,30.8,0,0,0,81.1,14.368a20.439,20.439,0,0,0-4.8-7.378,20.291,20.291,0,0,0-7.378-4.8A30.637,30.637,0,0,0,58.813.25C54.371.042,52.959,0,41.645,0Zm0,7.5c11.116,0,12.441.056,16.832.246a22.945,22.945,0,0,1,7.729,1.44,13.7,13.7,0,0,1,7.906,7.9,22.993,22.993,0,0,1,1.433,7.729c.2,4.394.243,5.712.243,16.832s-.052,12.441-.257,16.832a23.436,23.436,0,0,1-1.461,7.729,13.223,13.223,0,0,1-3.12,4.8,12.992,12.992,0,0,1-4.789,3.11A23.162,23.162,0,0,1,58.4,75.544c-4.421.2-5.723.243-16.863.243S29.1,75.735,24.678,75.53a23.614,23.614,0,0,1-7.76-1.461,12.9,12.9,0,0,1-4.786-3.12A12.645,12.645,0,0,1,9.009,66.16,23.634,23.634,0,0,1,7.552,58.4C7.4,54.031,7.34,52.681,7.34,41.593s.056-12.445.212-16.87A23.607,23.607,0,0,1,9.009,16.97a12.345,12.345,0,0,1,3.123-4.793,12.318,12.318,0,0,1,4.786-3.116A23.05,23.05,0,0,1,24.626,7.6c4.425-.156,5.726-.208,16.863-.208l.156.1Zm0,12.764A21.385,21.385,0,1,0,63.03,41.645,21.383,21.383,0,0,0,41.645,20.26Zm0,35.266A13.882,13.882,0,1,1,55.527,41.645,13.878,13.878,0,0,1,41.645,55.527Zm27.229-36.11a5,5,0,1,1-5-4.994A5,5,0,0,1,68.874,19.417Z" transform="translate(1089.573 782)" fill="url(#linear-gradient)"/>
    <path id="Icon_feather-message-square" data-name="Icon feather-message-square" d="M41.457,29.848a4.167,4.167,0,0,1-4.106,4.225H12.713L4.5,42.522V8.725A4.167,4.167,0,0,1,8.606,4.5H37.351a4.167,4.167,0,0,1,4.106,4.225Z" transform="translate(1065.235 760.623)" fill="url(#linear-gradient)"/>
    <path id="Icon_awesome-heart" data-name="Icon awesome-heart" d="M16.41,3.366a4.759,4.759,0,0,0-6.624.5l-.7.741-.7-.741a4.759,4.759,0,0,0-6.624-.5,5.342,5.342,0,0,0-.351,7.588l6.869,7.292a1.092,1.092,0,0,0,1.608,0l6.869-7.292a5.339,5.339,0,0,0-.348-7.588Z" transform="translate(1077.989 769.136)" fill="#fff"/>
    <path id="Icon_material-message" data-name="Icon material-message" d="M5.817,3H28.352a2.91,2.91,0,0,1,2.8,3l.014,27-5.634-6H5.817A2.921,2.921,0,0,1,3,24V6A2.921,2.921,0,0,1,5.817,3ZM8.634,21h16.9V18H8.634Zm0-4.5h16.9v-3H8.634Zm0-4.5h16.9V9H8.634Z" transform="translate(1160.388 851.134)" fill="url(#linear-gradient)"/>
  </g>
</svg>
