<svg xmlns="http://www.w3.org/2000/svg" xmlns:xlink="http://www.w3.org/1999/xlink" width="145.28" height="100" viewBox="0 0 145.28 100">
  <defs>
    <linearGradient id="linear-gradient" x1="0.725" x2="-0.178" y2="1.521" gradientUnits="objectBoundingBox">
      <stop offset="0" stop-color="#7062f2"/>
      <stop offset="0.516" stop-color="#ac52f3"/>
      <stop offset="1" stop-color="#ad52f3"/>
    </linearGradient>
  </defs>
  <g id="user" transform="translate(-729.257 -796.996)">
    <path id="customers" d="M21.792,45.107A14.288,14.288,0,1,0,7.264,30.821,14.422,14.422,0,0,0,21.792,45.107Zm101.7,0A14.288,14.288,0,1,0,108.96,30.821,14.422,14.422,0,0,0,123.488,45.107Zm7.264,7.143H116.224A14.61,14.61,0,0,0,105.986,56.4a32.657,32.657,0,0,1,17.048,24.42h14.982a7.2,7.2,0,0,0,7.264-7.143V66.536A14.422,14.422,0,0,0,130.752,52.25Zm-58.112,0a25.2,25.2,0,0,0,25.424-25,25.428,25.428,0,0,0-50.848,0A25.2,25.2,0,0,0,72.64,52.25Zm17.434,7.143H88.189a35.636,35.636,0,0,1-31.1,0H55.206a25.942,25.942,0,0,0-26.15,25.714v6.429a10.809,10.809,0,0,0,10.9,10.714h65.376a10.809,10.809,0,0,0,10.9-10.714V85.107A25.942,25.942,0,0,0,90.073,59.393ZM39.294,56.4A14.61,14.61,0,0,0,29.056,52.25H14.528A14.422,14.422,0,0,0,0,66.536v7.143a7.2,7.2,0,0,0,7.264,7.143H22.223A32.741,32.741,0,0,1,39.294,56.4Z" transform="translate(729.257 794.746)" fill="url(#linear-gradient)"/>
  </g>
</svg>
