<svg xmlns="http://www.w3.org/2000/svg" xmlns:xlink="http://www.w3.org/1999/xlink" width="145.28" height="143.804" viewBox="0 0 145.28 143.804">
  <defs>
    <linearGradient id="linear-gradient" x1="0.725" x2="-0.178" y2="1.521" gradientUnits="objectBoundingBox">
      <stop offset="0" stop-color="#7062f2"/>
      <stop offset="0.516" stop-color="#ac52f3"/>
      <stop offset="1" stop-color="#ad52f3"/>
    </linearGradient>
    <linearGradient id="linear-gradient-2" x1="1.135" y1="0.609" x2="-0.178" y2="1.521" xlink:href="#linear-gradient"/>
  </defs>
  <g id="users" transform="translate(-729.257 -796.996)">
    <path id="customers" d="M21.792,45.107A14.288,14.288,0,1,0,7.264,30.821,14.422,14.422,0,0,0,21.792,45.107Zm101.7,0A14.288,14.288,0,1,0,108.96,30.821,14.422,14.422,0,0,0,123.488,45.107Zm7.264,7.143H116.224A14.61,14.61,0,0,0,105.986,56.4a32.657,32.657,0,0,1,17.048,24.42h14.982a7.2,7.2,0,0,0,7.264-7.143V66.536A14.422,14.422,0,0,0,130.752,52.25Zm-58.112,0a25.2,25.2,0,0,0,25.424-25,25.428,25.428,0,0,0-50.848,0A25.2,25.2,0,0,0,72.64,52.25Zm17.434,7.143H88.189a35.636,35.636,0,0,1-31.1,0H55.206a25.942,25.942,0,0,0-26.15,25.714v6.429a10.809,10.809,0,0,0,10.9,10.714h65.376a10.809,10.809,0,0,0,10.9-10.714V85.107A25.942,25.942,0,0,0,90.073,59.393ZM39.294,56.4A14.61,14.61,0,0,0,29.056,52.25H14.528A14.422,14.422,0,0,0,0,66.536v7.143a7.2,7.2,0,0,0,7.264,7.143H22.223A32.741,32.741,0,0,1,39.294,56.4Z" transform="translate(729.257 794.746)" fill="url(#linear-gradient)"/>
    <path id="Icon_metro-target" data-name="Icon metro-target" d="M68.253,29.4H61.779C60.007,18.472,50.95,9.813,39.517,8.118V1.928h-8.21v6.19C19.874,9.813,10.817,18.472,9.044,29.4H2.571v7.85H9.044c1.773,10.931,10.83,19.59,22.262,21.286v6.19h8.21v-6.19c11.433-1.7,20.49-10.354,22.263-21.286h6.474V29.4Zm-14.828,0h-6.4a12.091,12.091,0,0,0-7.509-7.179V16.106A18.145,18.145,0,0,1,53.425,29.4Zm-18.013,7.85a3.929,3.929,0,1,1,4.105-3.925A4.018,4.018,0,0,1,35.412,37.253ZM31.307,16.106v6.118A12.09,12.09,0,0,0,23.8,29.4H17.4A18.145,18.145,0,0,1,31.307,16.106ZM17.4,37.253h6.4a12.09,12.09,0,0,0,7.509,7.179V50.55A18.145,18.145,0,0,1,17.4,37.253Zm22.118,13.3V44.432a12.091,12.091,0,0,0,7.509-7.179h6.4A18.145,18.145,0,0,1,39.517,50.55Z" transform="translate(771.429 876.072)" fill="url(#linear-gradient-2)"/>
  </g>
</svg>
