<svg xmlns="http://www.w3.org/2000/svg" xmlns:xlink="http://www.w3.org/1999/xlink" width="90.116" height="111.79" viewBox="0 0 90.116 111.79">
  <defs>
    <linearGradient id="linear-gradient" x1="1.149" y1="0.1" x2="0.5" y2="1" gradientUnits="objectBoundingBox">
      <stop offset="0" stop-color="#7062f2"/>
      <stop offset="0.81" stop-color="#ab53f3"/>
      <stop offset="1" stop-color="#ad52f3"/>
    </linearGradient>
  </defs>
  <path id="_1" data-name="1" d="M90.116,26.624v1.323H60.077V0H61.5a5.854,5.854,0,0,1,3.983,1.535L88.466,22.919a5.063,5.063,0,0,1,1.65,3.705ZM58.2,34.934a5.463,5.463,0,0,1-5.632-5.24V0H5.632A5.447,5.447,0,0,0,0,5.24V106.549a5.447,5.447,0,0,0,5.632,5.24H84.484a5.447,5.447,0,0,0,5.632-5.24V34.934ZM28.914,87.446a1.335,1.335,0,0,1-1.791.054L11.9,74.222a1.124,1.124,0,0,1,0-1.72L27.122,59.224a1.335,1.335,0,0,1,1.791.054l4.595,4.56a1.133,1.133,0,0,1,.341.863,1.149,1.149,0,0,1-.429.829l-9.566,7.833,9.566,7.833a1.149,1.149,0,0,1,.429.829,1.133,1.133,0,0,1-.341.863ZM40.951,98.467l-6.443-1.74a1.17,1.17,0,0,1-.864-1.461L48.063,49.06a1.284,1.284,0,0,1,1.57-.8L56.076,50a1.169,1.169,0,0,1,.864,1.461L42.521,97.664a1.283,1.283,0,0,1-1.57.8ZM78.685,74.222,63.463,87.5a1.335,1.335,0,0,1-1.791-.054l-4.595-4.56a1.132,1.132,0,0,1-.341-.863,1.149,1.149,0,0,1,.429-.829l9.566-7.832-9.566-7.833a1.149,1.149,0,0,1-.429-.829,1.133,1.133,0,0,1,.341-.863l4.595-4.56a1.335,1.335,0,0,1,1.791-.054L78.686,72.5a1.124,1.124,0,0,1,0,1.72Z" fill="url(#linear-gradient)"/>
</svg>
