<svg xmlns="http://www.w3.org/2000/svg" xmlns:xlink="http://www.w3.org/1999/xlink" width="115.247" height="111" viewBox="0 0 115.247 111">
  <defs>
    <linearGradient id="linear-gradient" x1="0.882" y1="0.14" x2="0.194" y2="1" gradientUnits="objectBoundingBox">
      <stop offset="0" stop-color="#7062f2"/>
      <stop offset="1" stop-color="#ad52f3"/>
    </linearGradient>
  </defs>
  <path id="_7" data-name="7" d="M80.553,18.026,98.6,37.585a2.248,2.248,0,0,1,0,2.992L54.9,87.935,36.335,90.169a4.063,4.063,0,0,1-4.3-4.662l2.061-20.123,43.7-47.358A1.851,1.851,0,0,1,80.553,18.026Zm32.413-4.966L103.2,2.479a7.4,7.4,0,0,0-11.045,0l-7.083,7.676a2.248,2.248,0,0,0,0,2.992l18.047,19.559a1.851,1.851,0,0,0,2.761,0l7.083-7.676a8.992,8.992,0,0,0,0-11.97ZM76.832,75.055V97.129H12.805V27.741H58.784a2.366,2.366,0,0,0,1.7-.759l8-8.674c1.521-1.648.44-4.445-1.7-4.445H9.6c-5.3,0-9.6,4.662-9.6,10.408V100.6c0,5.746,4.3,10.408,9.6,10.408H80.033c5.3,0,9.6-4.662,9.6-10.408V66.382a2.387,2.387,0,0,0-4.1-1.843l-8,8.674A2.785,2.785,0,0,0,76.832,75.055Z" transform="translate(0 -0.007)" fill="url(#linear-gradient)"/>
</svg>
