<svg xmlns="http://www.w3.org/2000/svg" xmlns:xlink="http://www.w3.org/1999/xlink" width="459" height="395" viewBox="0 0 459 395">
  <defs>
    <linearGradient id="linear-gradient" x1="0.843" y1="0.058" x2="0.5" y2="1" gradientUnits="objectBoundingBox">
      <stop offset="0" stop-color="#7062f2"/>
      <stop offset="1" stop-color="#ad52f3"/>
    </linearGradient>
    <filter id="Ellipse_1" x="270" y="0" width="82" height="78" filterUnits="userSpaceOnUse">
      <feOffset input="SourceAlpha"/>
      <feGaussianBlur stdDeviation="5" result="blur"/>
      <feFlood flood-color="#ad52f3"/>
      <feComposite operator="in" in2="blur"/>
      <feComposite in="SourceGraphic"/>
    </filter>
    <filter id="Ellipse_1-2" x="26" y="74" width="82" height="78" filterUnits="userSpaceOnUse">
      <feOffset input="SourceAlpha"/>
      <feGaussianBlur stdDeviation="5" result="blur-2"/>
      <feFlood flood-color="#ad52f3"/>
      <feComposite operator="in" in2="blur-2"/>
      <feComposite in="SourceGraphic"/>
    </filter>
    <filter id="Ellipse_1-3" x="135" y="0" width="82" height="78" filterUnits="userSpaceOnUse">
      <feOffset input="SourceAlpha"/>
      <feGaussianBlur stdDeviation="5" result="blur-3"/>
      <feFlood flood-color="#ad52f3"/>
      <feComposite operator="in" in2="blur-3"/>
      <feComposite in="SourceGraphic"/>
    </filter>
    <filter id="Ellipse_1-4" x="0" y="180" width="82" height="78" filterUnits="userSpaceOnUse">
      <feOffset input="SourceAlpha"/>
      <feGaussianBlur stdDeviation="5" result="blur-4"/>
      <feFlood flood-color="#ad52f3"/>
      <feComposite operator="in" in2="blur-4"/>
      <feComposite in="SourceGraphic"/>
    </filter>
  </defs>
  <g id="hero" transform="translate(-479 -116)">
    <g id="Path_38" data-name="Path 38" transform="translate(520 145)" fill="none">
      <path d="M209,0C324.428,0,418,81.932,418,183S324.428,366,209,366,0,284.068,0,183C0,102.854,58.842,34.741,140.9,9.935A235.489,235.489,0,0,1,209,0Z" stroke="none"/>
      <path d="M 209 1 C 185.7156372070313 1 162.9004669189453 4.328094482421875 141.1882019042969 10.89190673828125 C 120.979736328125 17.00100708007813 102.0120544433594 25.787841796875 84.81201171875 37.00820922851563 C 67.81063842773438 48.09906005859375 52.884521484375 61.33642578125 40.44827270507813 76.35263061523438 C 27.86679077148438 91.54421997070313 18.09756469726563 108.243896484375 11.41195678710938 125.98779296875 C 4.50311279296875 144.3242645263672 1 163.5059509277344 1 183 C 1 195.3397827148438 2.4197998046875 207.6717834472656 5.21990966796875 219.6533203125 C 7.9490966796875 231.3314666748047 12.021728515625 242.8190002441406 17.32467651367188 253.7969055175781 C 22.53274536132813 264.5782470703125 28.97943115234375 274.9776916503906 36.48562622070313 284.7061767578125 C 43.92279052734375 294.3450927734375 52.4644775390625 303.40966796875 61.8734130859375 311.6482238769531 C 71.2847900390625 319.8887939453125 81.64132690429688 327.3705749511719 92.6552734375 333.8858032226563 C 103.7768859863281 340.4647216796875 115.6669616699219 346.1155395507813 127.9950561523438 350.6812133789063 C 140.5527954101563 355.3319091796875 153.6946411132813 358.9038391113281 167.0555725097656 361.2977905273438 C 180.7664794921875 363.7543640136719 194.8785858154297 365 209 365 C 223.1214141845703 365 237.2335205078125 363.7543640136719 250.9444274902344 361.2977905273438 C 264.3053588867188 358.9038391113281 277.4472045898438 355.3319091796875 290.0049438476563 350.6812133789063 C 302.3330688476563 346.1155395507813 314.2231140136719 340.4647216796875 325.3447265625 333.8858032226563 C 336.3586730957031 327.3705749511719 346.7152099609375 319.8887939453125 356.1265869140625 311.6482238769531 C 365.5355224609375 303.40966796875 374.0772094726563 294.3450927734375 381.5143737792969 284.7061767578125 C 389.0205688476563 274.9776916503906 395.4672546386719 264.5782470703125 400.6753234863281 253.7969055175781 C 405.978271484375 242.8190002441406 410.0509033203125 231.3314666748047 412.7800903320313 219.6533203125 C 415.5802001953125 207.6717834472656 417 195.3397827148438 417 183 C 417 170.6602172851563 415.5802001953125 158.3282165527344 412.7800903320313 146.3466796875 C 410.0509033203125 134.6685333251953 405.978271484375 123.1809997558594 400.6753234863281 112.2031097412109 C 395.4672546386719 101.4217224121094 389.0205688476563 91.02230834960938 381.5143737792969 81.29385375976563 C 374.0772094726563 71.6549072265625 365.5355224609375 62.59030151367188 356.1265869140625 54.35177612304688 C 346.7152099609375 46.1112060546875 336.3586730957031 38.62942504882813 325.3447265625 32.11419677734375 C 314.2231140136719 25.5352783203125 302.3330688476563 19.88446044921875 290.0049438476563 15.31878662109375 C 277.4472045898438 10.6680908203125 264.3053588867188 7.096160888671875 250.9444274902344 4.70220947265625 C 237.2335205078125 2.245635986328125 223.1214141845703 1 209 1 M 209 0 C 324.4275207519531 0 418 81.931884765625 418 183 C 418 284.068115234375 324.4275207519531 366 209 366 C 93.57247924804688 366 0 284.068115234375 0 183 C 0 102.8536987304688 58.84194946289063 34.74090576171875 140.8988342285156 9.9346923828125 C 162.1479949951172 3.510894775390625 185.1057434082031 0 209 0 Z" stroke="none" fill="#e6e6e6"/>
    </g>
    <g id="hero-2" data-name="hero" transform="translate(548.521 204.832)">
      <g id="Group_5" data-name="Group 5">
        <path id="Path_1" data-name="Path 1" d="M48.134,155.505a23.8,23.8,0,1,1,2.05-.086q-1.023.086-2.05.086Zm.057-46.74q-.99,0-1.968.085a22.9,22.9,0,1,0,1.969-.085Zm-.027,39.91a16.939,16.939,0,1,1,1.422-.057,11.648,11.648,0,0,1-1.423.057Zm.029-33.076q-.684.007-1.366.057a16.126,16.126,0,1,0,1.367-.057Z" fill="#131022"/>
        <path id="Path_2" data-name="Path 2" d="M48.875,139.734a8.056,8.056,0,1,0-8.71-7.344,8.047,8.047,0,0,0,8.71,7.344Z" fill="#fff"/>
        <g id="Group_1" data-name="Group 1">
          <path id="Path_3" data-name="Path 3" d="M48.163,140.191a8.436,8.436,0,1,1,.712-.028,5.813,5.813,0,0,1-.712.028Zm.028-16.111-.655.029a7.631,7.631,0,1,0,.654-.029Z" fill="#131022"/>
          <path id="Path_4" data-name="Path 4" d="M48.362,132.365h-.085l-40.25-7.372a.419.419,0,0,1,.142-.826l40.278,7.344a.4.4,0,0,1,.342.484.428.428,0,0,1-.427.37Z" fill="#131022"/>
          <path id="Path_5" data-name="Path 5" d="M13.777,133.9h-.085l-11.87-2.106a.41.41,0,0,1-.313-.256.465.465,0,0,1,.057-.427l5.209-6.747-3.131-7.628a.455.455,0,0,1,.057-.427.42.42,0,0,1,.4-.143l11.87,2.107a.52.52,0,0,1,.285.2l4.384,7.828a.478.478,0,0,1-.057.512l-6.49,6.974a.425.425,0,0,1-.313.114Zm-11.1-2.818,10.959,1.936,6.12-6.547L15.627,119.1l-10.9-1.935,2.932,7.116a.455.455,0,0,1-.057.427l-4.924,6.376ZM286.462,62.852a18.087,18.087,0,0,1-6.974-1.423,17.69,17.69,0,0,1-9.621-9.763,17.907,17.907,0,0,1,.085-13.72,17.69,17.69,0,0,1,9.764-9.621,17.907,17.907,0,0,1,13.72.085,17.69,17.69,0,0,1,9.621,9.763,17.9,17.9,0,0,1-.085,13.72,17.69,17.69,0,0,1-9.764,9.621,18.042,18.042,0,0,1-6.746,1.338Zm0-35.012a17.486,17.486,0,0,0-6.433,1.252,17.066,17.066,0,1,0,22.146,22.459,16.9,16.9,0,0,0,.085-13.065,17.076,17.076,0,0,0-9.166-9.308,17.361,17.361,0,0,0-6.632-1.338Z" fill="#131022"/>
          <path id="Path_6" data-name="Path 6" d="M273.88,57.074l1.509,1.338,1.765,1.309-4.27,5.266-3.3-2.676,4.3-5.238Z" fill="#131022"/>
          <path id="Path_7" data-name="Path 7" d="M272.884,65.444a.4.4,0,0,1-.256-.085l-3.3-2.676a.442.442,0,0,1-.057-.6l4.27-5.266a.56.56,0,0,1,.313-.171.43.43,0,0,1,.313.114l1.48,1.338,1.765,1.309a.38.38,0,0,1,.171.285.572.572,0,0,1-.086.313l-4.269,5.266a.352.352,0,0,1-.285.142c-.029.028-.029.028-.057.028Zm-2.676-3.16,2.619,2.135,3.729-4.583-1.423-1.082-1.2-1.053-3.729,4.583Zm3.612,4.146-5.778-4.668L248.088,86.384l5.778,4.668Z" fill="#131022"/>
          <path id="Path_8" data-name="Path 8" d="M254.183,91.089a.4.4,0,0,1-.257-.085l-5.778-4.668a.442.442,0,0,1-.057-.6l19.954-24.622a.352.352,0,0,1,.285-.142.571.571,0,0,1,.313.085l5.778,4.668a.44.44,0,0,1,.057.6L254.524,90.947a.35.35,0,0,1-.284.142h-.057ZM249,85.908l5.1,4.127L273.51,66.067l-5.1-4.127L249,85.908Z" fill="#131022"/>
        </g>
        <path id="Path_9" data-name="Path 9" d="M48.305,27.466a5.764,5.764,0,1,0-5.75-5.778A5.752,5.752,0,0,0,48.305,27.466Z" fill="#fff"/>
        <path id="Path_10" data-name="Path 10" d="M48.305,27.9a6.2,6.2,0,1,1,6.205-6.2A6.22,6.22,0,0,1,48.305,27.9Zm0-11.528a5.337,5.337,0,1,0,5.351,5.323A5.363,5.363,0,0,0,48.305,16.367Z" fill="#131022"/>
        <path id="Path_11" data-name="Path 11" d="M68.942,5.549a2.5,2.5,0,1,0-2.5-2.5,2.51,2.51,0,0,0,2.5,2.5Z" fill="#fff"/>
        <path id="Path_12" data-name="Path 12" d="M68.943,5.975a2.9,2.9,0,1,1,2.9-2.9,2.9,2.9,0,0,1-2.9,2.9Zm0-4.981a2.06,2.06,0,0,0-2.049,2.049,2.049,2.049,0,0,0,4.1,0A2.06,2.06,0,0,0,68.943.994Z" fill="#131022"/>
        <path id="Path_13" data-name="Path 13" d="M93.083,42.126A16.225,16.225,0,1,0,76.858,25.9,16.225,16.225,0,0,0,93.083,42.126Z" fill="#d4d7e5"/>
        <g id="Group_2" data-name="Group 2">
          <path id="Path_14" data-name="Path 14" d="M93.082,42.554A16.652,16.652,0,1,1,109.734,25.9,16.66,16.66,0,0,1,93.082,42.554Zm0-32.45a15.8,15.8,0,1,0,15.8,15.8A15.817,15.817,0,0,0,93.082,10.1Z" fill="#131022"/>
          <path id="Path_15" data-name="Path 15" d="M77.653,39.848c-3.53,0-6.006-.883-6.8-2.7-1.025-2.391,1.053-5.892,5.721-9.621a.425.425,0,1,1,.541.655c-4.27,3.444-6.319,6.661-5.465,8.625,1.622,3.7,12.809,2.562,24.423-2.505a55.946,55.946,0,0,0,14.4-8.767c3.331-2.989,4.811-5.693,4.042-7.429-.768-1.793-3.928-2.533-8.6-2.021a.415.415,0,1,1-.085-.825c5.152-.541,8.539.37,9.478,2.533.911,2.106-.6,5.095-4.269,8.4a56,56,0,0,1-14.631,8.938c-7.173,3.1-13.948,4.725-18.759,4.725Z" fill="#131022"/>
        </g>
        <path id="Path_16" data-name="Path 16" d="M253.146,263.574a1.143,1.143,0,0,1-.883-.285.844.844,0,0,1-.114-1c3.473-7.743,4.64-12.382,3.53-13.749-.683-.825-2.391-.427-4.042-.057-1.48.342-2.875.655-3.871.228-3.16-1.366-3.644-11.841-3.672-13.037a.46.46,0,0,1,.4-.455h.029a.413.413,0,0,1,.427.4c.114,3.074.882,11.329,3.159,12.3.74.313,2.05,0,3.331-.285,1.907-.455,3.843-.91,4.9.342.939,1.139,1.423,3.843-3.388,14.631,0,.029-.028.029-.028.057,1.167.4,9.593-2.59,22.117-8.4a.426.426,0,1,1,.37.768c-.057.029-5.351,2.477-10.759,4.726-7.487,3.131-10.333,3.814-11.5,3.814Z" fill="#585c7b"/>
        <path id="Path_17" data-name="Path 17" d="M247.683,204.936a8.255,8.255,0,1,0-8.255-8.255A8.262,8.262,0,0,0,247.683,204.936Z" fill="#fff"/>
        <path id="Path_18" data-name="Path 18" d="M247.682,205.364a8.682,8.682,0,1,1,8.682-8.682,8.7,8.7,0,0,1-8.682,8.682Zm0-16.51a7.828,7.828,0,1,0,7.828,7.828A7.823,7.823,0,0,0,247.682,188.854Z" fill="#585c7b"/>
        <g id="Group_3" data-name="Group 3">
          <path id="Path_19" data-name="Path 19" d="M173.564,79.758c1.862-.029,6.606,2.008,8.934.175,2.328-1.863.757-4.482.961-6.9.349-4.424-3.173-11.961-9.284-11.961-7.217,0-7.858,5.559-10.07,5.559-2.852,0-9.574,9.778-4.685,13.416,3.056,2.3,4.133-2.532,6.373-.553,2.358,2.154,5.792.291,7.771.262Z" fill="#131022"/>
          <path id="Path_20" data-name="Path 20" d="M179.764,81.158a20.26,20.26,0,0,1-3.987-.582,12.03,12.03,0,0,0-2.212-.378,8.589,8.589,0,0,0-1.863.32c-1.921.437-4.336.99-6.228-.669-.756-.669-1.251-.378-2.182.291-.961.7-2.3,1.659-4.162.262-1.892-1.426-2.386-3.871-1.4-6.9,1.222-3.7,4.365-7.305,6.344-7.305.582,0,1.135-.64,1.8-1.455a9.712,9.712,0,0,1,8.265-4.1,8.382,8.382,0,0,1,6.169,2.881,13.689,13.689,0,0,1,3.551,9.516,11.424,11.424,0,0,0,.146,2.212c.261,1.746.523,3.58-1.281,5.006a4.562,4.562,0,0,1-2.968.9Zm-6.17-1.834a13.18,13.18,0,0,1,2.386.378c2.125.466,4.773,1.048,6.228-.116,1.4-1.106,1.193-2.532.961-4.191a11.1,11.1,0,0,1-.175-2.415,13.057,13.057,0,0,0-3.318-8.876,7.443,7.443,0,0,0-5.529-2.619,8.829,8.829,0,0,0-7.6,3.783c-.786.96-1.484,1.775-2.474,1.775-1.426,0-4.365,3.26-5.529,6.694-.611,1.862-.931,4.424,1.077,5.937,1.368,1.019,2.182.407,3.114-.262.873-.64,1.95-1.426,3.259-.262,1.543,1.368,3.638.9,5.442.5a12.2,12.2,0,0,1,2.067-.349c.058.029.058.029.087.029Z" fill="#131022"/>
        </g>
        <path id="Path_21" data-name="Path 21" d="M157.441,130.6l32.537,1.31-1.863-31.751,6.432,3.755,7.566-12.456s-15.657-9.808-28.141-9.808c0,0-2.241,1.135-3.987,0-8.033,1.426-13.417,5.122-25.872,17.694l11.291,11.99,3.434-3.318-1.4,22.583Z" fill="#fff"/>
        <path id="Path_22" data-name="Path 22" d="M189.979,132.347h0l-32.537-1.309a.47.47,0,0,1-.32-.146.438.438,0,0,1-.116-.32l1.338-21.478-2.619,2.532a.42.42,0,0,1-.611,0c-.029-.029-3.638-3.754-11.292-12.019a.483.483,0,0,1,0-.611c12.6-12.689,17.956-16.355,26.1-17.811a.405.405,0,0,1,.32.058,3.916,3.916,0,0,0,3.551-.029.419.419,0,0,1,.2-.058c12.485,0,28.2,9.778,28.375,9.866a.452.452,0,0,1,.146.611l-7.567,12.456a.423.423,0,0,1-.582.145l-5.733-3.346,1.8,30.935a.44.44,0,0,1-.116.321.451.451,0,0,1-.349.2Zm-32.071-2.153,31.6,1.28-1.834-31.285a.441.441,0,0,1,.2-.407.4.4,0,0,1,.437,0l6.053,3.521,7.13-11.7c-2.415-1.455-16.268-9.458-27.443-9.516a4.819,4.819,0,0,1-4.162.029c-7.77,1.426-13.038,5.006-25.174,17.229l10.71,11.379,3.114-3.026a.5.5,0,0,1,.495-.088.453.453,0,0,1,.262.437l-1.4,22.147Z" fill="#131022"/>
        <path id="Path_23" data-name="Path 23" d="M144.143,99.345l-6.345,6.926-31.081-20.2s-2.852-5.471-4.365-5.18,0,5.064,0,5.064S91.118,81.1,90.245,83.222c-.757,1.834,7.741,3.929,7.741,3.929s-10.535-3.4-11.059-.9c-.5,2.328,10.739,4.191,10.739,4.191s-12.194-2.241-12.514.2c-.349,2.677,10.564,1.775,10.564,1.775s-8.323,1.95-8.061,4.162c.2,1.775,8.149-.786,11.99,1.4s39.172,29.044,39.172,29.044l16.646-15.657-11.32-12.019Z" fill="#fff"/>
        <g id="Group_4" data-name="Group 4">
          <path id="Path_24" data-name="Path 24" d="M138.787,127.431a.47.47,0,0,1-.262-.087L99.383,98.358c-1.95-1.106-5.122-.9-7.654-.757-2.561.145-4.394.262-4.54-.96-.145-1.164,1.222-2.27,4.191-3.376l.7-.262c-2.677.029-6-.2-7.043-1.31a1.336,1.336,0,0,1-.378-1.106,1.248,1.248,0,0,1,.524-.844c.844-.611,2.823-.728,4.947-.64a7.5,7.5,0,0,1-3.463-1.95,1.42,1.42,0,0,1-.233-.99,1.344,1.344,0,0,1,.669-.873,7.053,7.053,0,0,1,3.812-.233,2.76,2.76,0,0,1-1.106-1.048,1.164,1.164,0,0,1-.058-.931,1.19,1.19,0,0,1,.669-.64c2.037-.844,8.7,1.746,11.175,2.765-.32-1.222-.727-3.288-.174-4.22a1.08,1.08,0,0,1,.756-.524c1.659-.291,4.016,3.871,4.773,5.3l30.79,19.935,6.083-6.665a.426.426,0,0,1,.64,0l11.292,11.99a.423.423,0,0,1-.029.611l-16.647,15.658a.323.323,0,0,1-.291.145ZM94.726,96.583a10.5,10.5,0,0,1,5.093.99c3.667,2.1,35.3,26.076,38.939,28.84l16.064-15.1-10.68-11.35-6.024,6.578a.442.442,0,0,1-.553.058L106.454,86.4a.3.3,0,0,1-.145-.175c-1.31-2.5-3.172-5.093-3.9-4.947a.212.212,0,0,0-.175.116c-.407.669.059,2.968.5,4.395a.441.441,0,0,1-.582.553c-3.7-1.6-9.778-3.754-11.321-3.114-.175.058-.2.145-.2.175a.185.185,0,0,0,.029.2c.378.727,2.386,1.6,4.482,2.27,1.484.378,2.677.757,2.969.873a.43.43,0,0,1,.291.524.416.416,0,0,1-.524.291c-.291-.058-1.513-.378-2.939-.844-2.765-.7-6.228-1.368-7.363-.7a.483.483,0,0,0-.262.32.422.422,0,0,0,.087.32c.96,1.4,6.635,2.677,9.546,3.23q.381.056.757.145a.431.431,0,0,1,.349.5.411.411,0,0,1-.5.349c-.116-.029-.407-.058-.757-.145-3.172-.524-9.633-1.339-11.059-.291-.146.116-.175.2-.175.262a.476.476,0,0,0,.146.407c1.106,1.164,6.694,1.164,9.953.873a.424.424,0,0,1,.466.378.454.454,0,0,1-.32.5c-3.2.757-7.858,2.445-7.712,3.7.058.407,2.27.262,3.609.2.931-.087,1.979-.175,3.027-.175ZM157.441,130.6,122.2,176.878,89.633,201.47l20.692,24.155,34.661-24.737,16.3-22.846.727,13.242-16.937,49.27,32.333,3.871L197.4,194.776l-7.421-62.861-32.537-1.31Z" fill="#131022"/>
          <path id="Path_25" data-name="Path 25" d="M177.435,244.859h-.059l-32.332-3.871a.475.475,0,0,1-.32-.2.434.434,0,0,1-.029-.379L161.6,191.223l-.64-11.9-15.57,21.827c-.029.029-.058.087-.116.117L110.616,226a.445.445,0,0,1-.582-.059L89.342,201.787a.437.437,0,0,1-.116-.32.383.383,0,0,1,.175-.291l32.507-24.533,35.214-46.214a.433.433,0,0,1,.379-.175l32.536,1.31a.433.433,0,0,1,.407.378l7.422,62.861a.485.485,0,0,1-.03.2l-19.964,49.648a.566.566,0,0,1-.436.2Zm-31.751-4.686,31.489,3.784,19.789-49.241L189.6,132.349l-31.925-1.28-35.126,46.069-.088.087-32.187,24.3,20.11,23.485,34.282-24.446,16.269-22.787a.429.429,0,0,1,.785.233l.728,13.241a.37.37,0,0,1-.029.175l-16.734,48.746Z" fill="#131022"/>
          <path id="Path_26" data-name="Path 26" d="M161.312,178.477a.467.467,0,0,1-.262-.088.428.428,0,0,1-.087-.611l12.95-16.588a.437.437,0,0,1,.7.524L161.661,178.3a.45.45,0,0,1-.349.175ZM98.188,235.811a.415.415,0,0,1-.349-.175l-19.469-28.2a.43.43,0,0,1,.116-.611l9.924-6.868a.45.45,0,0,1,.582.087l25.377,29.626a.506.506,0,0,1,.087.407.376.376,0,0,1-.291.292L98.333,235.84a.261.261,0,0,0-.145-.029ZM79.33,207.261,98.363,234.85l14.9-5.151-24.708-28.84Z" fill="#131022"/>
        </g>
        <path id="Path_27" data-name="Path 27" d="M79.971,208.977,65.856,219.8l22.263,35.213,5.82-18.334,3.609-2.241L79.97,208.977Z" fill="#fff"/>
        <path id="Path_28" data-name="Path 28" d="M88.119,255.456a.5.5,0,0,1-.378-.2L65.478,220.038a.423.423,0,0,1,.116-.582L79.709,208.63a.418.418,0,0,1,.32-.087.492.492,0,0,1,.291.175L97.9,234.182a.48.48,0,0,1,.058.349.419.419,0,0,1-.2.291l-3.492,2.154-5.733,18.189a.4.4,0,0,1-.349.291H88.12ZM66.438,219.922,87.974,254,93.5,236.568a.45.45,0,0,1,.175-.232l3.23-1.979L79.854,209.649,66.438,219.922ZM174.264,260.46a.266.266,0,0,1-.146-.029l-33.38-11.787a.424.424,0,0,1-.262-.524l2.27-7.945a.44.44,0,0,1,.466-.32l37.018,4.453a.419.419,0,0,1,.32.2.436.436,0,0,1,.029.378L174.7,260.169a.46.46,0,0,1-.436.291Zm-32.857-12.485,32.6,11.5,5.529-14.347-36.087-4.336-2.037,7.188Z" fill="#131022"/>
        <path id="Path_29" data-name="Path 29" d="M142.306,248.766,171.554,259.1l-2.968,8.294L182.7,282.67l-47.291-15.424Z" fill="#fff"/>
        <path id="Path_30" data-name="Path 30" d="M182.7,283.107a.262.262,0,0,1-.145-.029l-47.292-15.424a.415.415,0,0,1-.262-.233.488.488,0,0,1-.029-.349l6.9-18.48a.42.42,0,0,1,.553-.262L171.7,258.661a.412.412,0,0,1,.262.233.423.423,0,0,1,.029.32l-2.881,8.061,13.94,15.075a.442.442,0,0,1,.058.524.542.542,0,0,1-.407.233Zm-46.738-16.123,45.254,14.755-12.951-14.056a.41.41,0,0,1-.087-.437L171,259.36l-28.433-10.041-6.606,17.665Z" fill="#131022"/>
        <path id="Path_31" data-name="Path 31" d="M170.014,77.232c.582.931,0,4.423,0,4.423a3.872,3.872,0,0,0,1.833.5,4.888,4.888,0,0,0,1.543-.5v-4.54s5.645-2.707,3.579-5.3c-1.63-2.066-5.879,1.164-6.868,1.484s-2.59-.786-3.143.32c-.611,1.31,2.415,2.619,3.056,3.609Z" fill="#fff"/>
        <path id="Path_32" data-name="Path 32" d="M171.7,82.615a4.709,4.709,0,0,1-1.892-.553.43.43,0,0,1-.232-.466c.232-1.368.407-3.58.058-4.132a5.733,5.733,0,0,0-1.193-1.048c-1.077-.815-2.416-1.833-1.863-3,.466-.96,1.484-.757,2.241-.611a2.62,2.62,0,0,0,1.135.087,7.6,7.6,0,0,0,.96-.5c1.688-.96,4.86-2.765,6.4-.844a2.318,2.318,0,0,1,.495,2.008c-.437,1.862-3.143,3.4-3.987,3.841v4.249a.455.455,0,0,1-.233.378,5.02,5.02,0,0,1-1.717.553.374.374,0,0,1-.175.029Zm-1.222-1.193a2.9,2.9,0,0,0,1.309.32,3.673,3.673,0,0,0,1.164-.349V77.144a.44.44,0,0,1,.262-.407c.932-.437,3.4-1.921,3.755-3.376a1.369,1.369,0,0,0-.321-1.251c-1.047-1.339-3.812.233-5.267,1.048l-1.106.582a3.014,3.014,0,0,1-1.6-.058c-.844-.175-1.135-.175-1.28.145-.262.524.786,1.281,1.6,1.921a6.068,6.068,0,0,1,1.4,1.281c.553.873.233,3.376.088,4.394Z" fill="#131022"/>
        <path id="Path_33" data-name="Path 33" d="M202.113,91.456l15.948,10.652s23.893-14.028,25.086-15.541,2.852-5.733,4.191-5.675,0,5.558,0,5.558,11.233-3.725,12.543-1.31L251.7,87.7s9.924-3.056,11.175-1.251S251.849,90.7,251.849,90.7s11.524-3.434,12.6-.931c1.106,2.5-10.593,3.114-10.593,3.114s9.836-.5,9.662.931-17.142,1.368-44.469,24.824l-24.562-14.755,7.625-12.427Z" fill="#fff"/>
        <path id="Path_34" data-name="Path 34" d="M219.11,119.078a.682.682,0,0,1-.233-.058l-24.563-14.755a.462.462,0,0,1-.2-.262.4.4,0,0,1,.058-.32l7.567-12.427a.53.53,0,0,1,.291-.2.5.5,0,0,1,.349.058l15.715,10.506c9.575-5.617,23.893-14.231,24.737-15.308a19.36,19.36,0,0,0,1.281-2.124c1.076-1.95,2.1-3.783,3.288-3.725a.8.8,0,0,1,.669.378c.67.873.2,3.58-.116,4.977,2.939-.931,11.059-3.2,12.339-.873a.563.563,0,0,1,.03.378.637.637,0,0,1-.117.175c2.125-.146,2.794.32,3.085.727a.85.85,0,0,1,.087.873c-.174.466-.873.931-1.862,1.368,1.688-.029,3,.291,3.376,1.164a1.135,1.135,0,0,1-.088,1.135c-.494.786-2.1,1.368-3.9,1.746a5.381,5.381,0,0,1,2.881.757.69.69,0,0,1,.2.611c-.058.611-.785.815-2.939,1.4-5.646,1.542-20.6,5.617-41.674,23.719a.359.359,0,0,1-.262.087Zm-23.952-15.337,23.893,14.377c21.1-18.044,36.116-22.147,41.762-23.689A19.329,19.329,0,0,0,263,93.76c-.9-.5-5.238-.611-9.08-.437a.448.448,0,0,1-.466-.407.47.47,0,0,1,.408-.466c3.521-.175,9.429-.931,10.186-2.183a.319.319,0,0,0,.029-.32c-.262-.611-2.3-.931-6.112-.262-2.5.728-5.151,1.281-6.024,1.455a.434.434,0,0,1-.524-.32.441.441,0,0,1,.291-.524c.873-.262,3.347-.96,5.879-1.426,2.881-.844,4.86-1.659,4.918-2.154-.669-.96-6.082-.029-10.709,1.4a.46.46,0,0,1-.553-.291.436.436,0,0,1,.291-.553c.058-.029,4.8-1.513,7.421-2.328-1.834-.7-7.538.582-11.525,1.921a.473.473,0,0,1-.436-.087.405.405,0,0,1-.117-.437c.582-2.386.786-4.773.408-5.035-.641,0-1.776,2.066-2.474,3.289a19.476,19.476,0,0,1-1.368,2.241c-1.222,1.542-22.758,14.231-25.232,15.657a.447.447,0,0,1-.465,0l-15.57-10.419-7.014,11.67Z" fill="#131022"/>
      </g>
    </g>
    <g id="Group_6" data-name="Group 6" transform="translate(-195 -89)">
      <g transform="matrix(1, 0, 0, 1, 674, 205)" filter="url(#Ellipse_1)">
        <ellipse id="Ellipse_1-5" data-name="Ellipse 1" cx="26" cy="24" rx="26" ry="24" transform="translate(285 15)" fill="url(#linear-gradient)"/>
      </g>
      <g id="Icon_feather-shopping-cart" data-name="Icon feather-shopping-cart" transform="translate(971.5 231.5)">
        <path id="Path_35" data-name="Path 35" d="M15,31.5A1.5,1.5,0,1,1,13.5,30,1.5,1.5,0,0,1,15,31.5Z" transform="translate(-2.991 -7.875)" fill="none" stroke="#fff" stroke-linecap="round" stroke-linejoin="round" stroke-width="3"/>
        <path id="Path_36" data-name="Path 36" d="M31.5,31.5A1.5,1.5,0,1,1,30,30,1.5,1.5,0,0,1,31.5,31.5Z" transform="translate(-8.545 -7.875)" fill="none" stroke="#fff" stroke-linecap="round" stroke-linejoin="round" stroke-width="3"/>
        <path id="Path_37" data-name="Path 37" d="M1.5,1.5H5.946L8.925,14.555a2.177,2.177,0,0,0,2.223,1.57h10.8a2.177,2.177,0,0,0,2.223-1.57l1.779-8.18H7.058" transform="translate(0 0)" fill="none" stroke="#fff" stroke-linecap="round" stroke-linejoin="round" stroke-width="3"/>
      </g>
    </g>
    <g id="Group_9" data-name="Group 9" transform="translate(-203 94)">
      <g id="Group_7" data-name="Group 7" transform="translate(-236 -109)">
        <g transform="matrix(1, 0, 0, 1, 918, 131)" filter="url(#Ellipse_1-2)">
          <ellipse id="Ellipse_1-6" data-name="Ellipse 1" cx="26" cy="24" rx="26" ry="24" transform="translate(41 89)" fill="url(#linear-gradient)"/>
        </g>
      </g>
      <path id="Icon_feather-heart" data-name="Icon feather-heart" d="M20.516,6.017a5.187,5.187,0,0,0-7.337,0l-1,1-1-1a5.188,5.188,0,1,0-7.337,7.337l1,1,7.337,7.337,7.337-7.337,1-1a5.187,5.187,0,0,0,0-7.337Z" transform="translate(736.677 123.503)" fill="none" stroke="#fff" stroke-linecap="round" stroke-linejoin="round" stroke-width="3"/>
    </g>
    <g id="Group_8" data-name="Group 8" transform="translate(-330 -89)">
      <g transform="matrix(1, 0, 0, 1, 809, 205)" filter="url(#Ellipse_1-3)">
        <ellipse id="Ellipse_1-7" data-name="Ellipse 1" cx="26" cy="24" rx="26" ry="24" transform="translate(150 15)" fill="url(#linear-gradient)"/>
      </g>
    </g>
    <path id="Icon_map-clothing-store" data-name="Icon map-clothing-store" d="M27.461,9.769a.614.614,0,0,1-.109.492l-3.083,4.588a.686.686,0,0,1-.555.275,1.6,1.6,0,0,1-.28-.029l-2.471-.606V25.356a.55.55,0,0,1-.572.572H8.379a.55.55,0,0,1-.572-.572V14.488L5.587,15.1a.523.523,0,0,1-.623-.246L1.9,10.278a.577.577,0,0,1-.08-.48.558.558,0,0,1,.315-.366L8.379,6.48h2.86a.547.547,0,0,1,.572.572c0,1.178,1.653,2.013,2.831,2.013s2.889-.829,2.889-2.013A.55.55,0,0,1,18.1,6.48h2.86l6.178,2.894a.615.615,0,0,1,.32.395Z" transform="translate(640.198 138.52)" fill="none" stroke="#fff" stroke-width="3"/>
    <g id="Group_10" data-name="Group 10" transform="translate(-229 200)">
      <g id="Group_7-2" data-name="Group 7" transform="translate(-236 -109)">
        <g transform="matrix(1, 0, 0, 1, 944, 25)" filter="url(#Ellipse_1-4)">
          <ellipse id="Ellipse_1-8" data-name="Ellipse 1" cx="26" cy="24" rx="26" ry="24" transform="translate(15 195)" fill="url(#linear-gradient)"/>
        </g>
      </g>
    </g>
    <path id="Icon_metro-truck" data-name="Icon metro-truck" d="M26.292,16.045l-2.965-5.864H18.879V7.25A1.479,1.479,0,0,0,17.4,5.784H4.053A1.479,1.479,0,0,0,2.571,7.25V18.977l1.483,1.466h1.88a2.892,2.892,0,0,0-.4,1.466,2.965,2.965,0,0,0,5.93,0,2.892,2.892,0,0,0-.4-1.466h8.208a2.892,2.892,0,0,0-.4,1.466,2.965,2.965,0,0,0,5.93,0,2.892,2.892,0,0,0-.4-1.466h1.88v-4.4Zm-7.413,0v-4.4h3.073l2.224,4.4h-5.3Z" transform="translate(505.429 319.216)" fill="none" stroke="#fff" stroke-width="2"/>
  </g>
</svg>
