<svg xmlns="http://www.w3.org/2000/svg" xmlns:xlink="http://www.w3.org/1999/xlink" width="100" height="100" viewBox="0 0 100 100">
  <defs>
    <linearGradient id="linear-gradient" x1="0.825" y1="0.053" x2="0.052" y2="0.984" gradientUnits="objectBoundingBox">
      <stop offset="0" stop-color="#b500ff"/>
      <stop offset="0.958" stop-color="#3a27ff"/>
      <stop offset="1" stop-color="#6a64f1"/>
    </linearGradient>
  </defs>
  <g id="honesty" opacity="0.6">
    <g id="Boundary" stroke="rgba(0,0,0,0)" stroke-width="1" opacity="0" fill="url(#linear-gradient)">
      <rect width="100" height="100" stroke="none"/>
      <rect x="0.5" y="0.5" width="99" height="99" fill="none"/>
    </g>
    <path id="Path_hands-pray" data-name="Path / hands-pray" d="M47.264,38.816A4.456,4.456,0,0,1,47.6,40.4V65.456a9.573,9.573,0,0,1-2.544,6.48L31.664,86.576l-16.32-16.32L21.2,64.4,34.64,6.128a5.351,5.351,0,0,1,10.56,1.2V31.136a9.984,9.984,0,0,0-2.4-.336,9.628,9.628,0,0,0-9.6,9.6V54.8a2.4,2.4,0,1,0,4.8,0V40.4a4.814,4.814,0,0,1,4.8-4.8,4.591,4.591,0,0,1,2.4.768,6,6,0,0,1,1.44,1.248,2.722,2.722,0,0,1,.384.624,2.936,2.936,0,0,1,.24.576M2,83.6,21.2,98l5.616-6.1-16.56-16.56L2,83.6M78.8,64.4,65.36,6.128a5.351,5.351,0,0,0-10.56,1.2V31.136a9.984,9.984,0,0,1,2.4-.336,9.628,9.628,0,0,1,9.6,9.6V54.8a2.4,2.4,0,1,1-4.8,0V40.4a4.814,4.814,0,0,0-4.8-4.8,4.591,4.591,0,0,0-2.4.768,4.992,4.992,0,0,0-1.392,1.248,2.887,2.887,0,0,0-.432.624,2.936,2.936,0,0,0-.24.576A4.456,4.456,0,0,0,52.4,40.4V65.456a9.573,9.573,0,0,0,2.544,6.48l13.392,14.64,16.32-16.32L78.8,64.4M89.744,75.344,73.184,91.9,78.8,98,98,83.6Z" transform="translate(0 0)" stroke="rgba(0,0,0,0)" stroke-width="1" fill="url(#linear-gradient)"/>
  </g>
</svg>
