<svg xmlns="http://www.w3.org/2000/svg" xmlns:xlink="http://www.w3.org/1999/xlink" width="136.339" height="100" viewBox="0 0 136.339 100">
  <defs>
    <linearGradient id="linear-gradient" x1="0.825" y1="0.053" x2="0.052" y2="0.984" gradientUnits="objectBoundingBox">
      <stop offset="0" stop-color="#b500ff"/>
      <stop offset="0.958" stop-color="#3a27ff"/>
      <stop offset="1" stop-color="#6a64f1"/>
    </linearGradient>
  </defs>
  <g id="users" transform="translate(0.5)" opacity="0.6">
    <g id="Boundary" stroke="rgba(0,0,0,0)" stroke-width="1" opacity="0" fill="url(#linear-gradient)">
      <rect width="135.339" height="100" stroke="none"/>
      <rect x="0.5" y="0.5" width="134.339" height="99" fill="none"/>
    </g>
    <path id="Path_account-group-outline" data-name="Path / account-group-outline" d="M67.67,5c-10.9,0-19.737,10.074-19.737,22.5S56.769,50,67.67,50,87.406,39.926,87.406,27.5,78.57,5,67.67,5m0,12.857c4.672,0,8.459,4.317,8.459,9.643s-3.787,9.643-8.459,9.643-8.459-4.317-8.459-9.643S63,17.857,67.67,17.857M31.015,24.286c-7.786,0-14.1,7.2-14.1,16.071a16.608,16.608,0,0,0,7.274,14.014,12.345,12.345,0,0,0,13.647,0,15.794,15.794,0,0,0,5.132-5.593A38.112,38.112,0,0,1,36.654,27.5V25.7a11.971,11.971,0,0,0-5.639-1.414m73.309,0A11.971,11.971,0,0,0,98.685,25.7v1.8a38.112,38.112,0,0,1-6.316,21.279,17.466,17.466,0,0,0,2.256,3.15A13.452,13.452,0,0,0,97.5,54.371a12.345,12.345,0,0,0,13.647,0,16.608,16.608,0,0,0,7.274-14.014c0-8.876-6.312-16.071-14.1-16.071M67.67,62.857c-13.2,0-39.474,7.521-39.474,22.5V95h78.948V85.357c0-14.979-26.278-22.5-39.474-22.5M26.56,66.393C15.677,67.871,0,74.171,0,85.357V95H16.917V82.593c0-6.493,3.891-11.893,9.643-16.2m82.218,0c5.752,4.307,9.643,9.707,9.643,16.2V95h16.917V85.357c0-11.186-15.677-17.486-26.56-18.964M67.67,75.714a52.741,52.741,0,0,1,23.854,6.429H43.816A52.741,52.741,0,0,1,67.67,75.714Z" transform="translate(0 0)" stroke="rgba(0,0,0,0)" stroke-width="1" fill="url(#linear-gradient)"/>
  </g>
</svg>
